<svg xmlns="http://www.w3.org/2000/svg" width="100" height="100"><path style="color:#000;font-style:normal;font-variant:normal;font-weight:400;font-stretch:normal;font-size:medium;line-height:normal;font-family:sans-serif;font-variant-ligatures:normal;font-variant-position:normal;font-variant-caps:normal;font-variant-numeric:normal;font-variant-alternates:normal;font-feature-settings:normal;text-indent:0;text-align:start;text-decoration:none;text-decoration-line:none;text-decoration-style:solid;text-decoration-color:#000;letter-spacing:normal;word-spacing:normal;text-transform:none;writing-mode:lr-tb;direction:ltr;text-orientation:mixed;dominant-baseline:auto;baseline-shift:baseline;text-anchor:start;white-space:normal;shape-padding:0;clip-rule:nonzero;display:inline;overflow:visible;visibility:visible;opacity:1;isolation:auto;mix-blend-mode:normal;color-interpolation:sRGB;color-interpolation-filters:linearRGB;solid-color:#000;solid-opacity:1;vector-effect:none;fill-opacity:1;fill-rule:nonzero;color-rendering:auto;image-rendering:auto;shape-rendering:auto;text-rendering:auto;enable-background:accumulate;fill:#fff1b5;stroke:#ffb000;stroke-opacity:1;stroke-width:.05;stroke-miterlimit:4;stroke-dasharray:none" d="M51.1519 5.88c-.075-.0134-.1417.0291-.1898.0787-.0482.0495-.0941.1147-.1534.1998-.0122.0175-.0113.019-.0174.0309a2.7246 2.7246 0 0 0-.0237.0473c-.0194.0396-.0462.0959-.0808.1684a136.704 136.704 0 0 0-.2961.6272 895.7379 895.7379 0 0 0-1.0887 2.3303 6041.2582 6041.2582 0 0 0-3.8273 8.2398A27829.1556 27829.1556 0 0 0 33.9043 42.589a28782.2988 28782.2988 0 0 0-11.6705 25.26 6743.8061 6743.8061 0 0 0-3.9527 8.5812c-.9804 2.1339-1.578 3.4417-1.675 3.671l-.2777.6567 3.5763 6.331c.9774 1.7303 1.8982 3.3402 2.5945 4.5401.3482.6.6405 1.0972.8556 1.4564.1076.1795.1957.3247.2625.431.0668.1065.1052.1672.1392.206.0483.055.125.0987.2538.1312.1287.0324.3165.0584.6135.0811.594.0454 1.6244.0763 3.4567.098 3.6645.043 10.5339.0478 23.4946.0478 10.9113 0 17.789-.0122 21.9626-.0476 2.0868-.0176 3.4973-.041 4.3993-.0718.451-.0155.7746-.0328.9937-.0523.1096-.0099.1929-.0198.2551-.0314a.578.578 0 0 0 .0803-.0194c.0232-.0077.0438-.013.0704-.0397.0235-.0236.0373-.046.0593-.081a3.4111 3.4111 0 0 0 .0791-.1342c.062-.1096.1425-.259.239-.4434.1933-.3689.4511-.8775.7512-1.4796.6003-1.204 1.3701-2.782 2.1298-4.3607.7597-1.5787 1.509-3.158 2.0688-4.3649.28-.6034.5125-1.1137.6753-1.4847a14.703 14.703 0 0 0 .1896-.4473c.022-.0556.0392-.101.0514-.1372.0121-.0363.0217-.0524.0217-.0965 0-.0279-.0035-.0277-.0054-.0339-.0019-.0066-.0039-.012-.0063-.0186-.0047-.0132-.0113-.0294-.0196-.05a9.5755 9.5755 0 0 0-.0729-.1731 63.787 63.787 0 0 0-.2814-.6416 460.808 460.808 0 0 0-1.068-2.3804c-.9202-2.0394-2.2354-4.9366-3.8149-8.4068-3.159-6.9406-7.3757-16.1734-11.6073-25.4191C64.4943 34.4195 60.248 25.1607 57.03 18.168c-1.609-3.4963-2.961-6.426-3.9255-8.5044a511.173 511.173 0 0 0-1.1398-2.4438 79.7586 79.7586 0 0 0-.3217-.677 13.9123 13.9123 0 0 0-.0939-.1913c-.0237-.047-.0367-.0728-.0514-.0954-.0702-.1077-.1244-.19-.1743-.2515-.0499-.0616-.0967-.1114-.1716-.1247Zm-.0324.1836c-.0054-.0009.0202.0095.0601.0588.04.0493.0932.129.163.236 0 0 .0181.0321.041.0776.023.0455.0539.1085.0925.1884.0772.1597.1849.3865.3209.6752.272.5775.6574 1.4036 1.1395 2.4427.9643 2.0782 2.316 5.008 3.925 8.5042 3.2179 6.9925 7.4642 16.2513 11.6958 25.497 4.2315 9.2456 8.4485 18.4781 11.6073 25.4185 1.5795 3.4702 2.8943 6.3673 3.8143 8.4063a461.936 461.936 0 0 1 1.0675 2.3793c.123.2773.2176.492.281.6394a8.975 8.975 0 0 1 .0712.1695c.007.0174.0118.0298.0152.0392-.0008-.0044-.0013.0055-.0098.03a2.6687 2.6687 0 0 1-.0479.1277 14.578 14.578 0 0 1-.1868.441c-.1619.3688-.394.8784-.6736 1.4812-.5593 1.2055-1.3087 2.7845-2.068 4.3627-.7594 1.5781-1.529 3.1554-2.1287 4.3583-.2998.6014-.5571 1.1094-.7493 1.4763-.096.1834-.1758.3315-.236.438a3.1967 3.1967 0 0 1-.0748.1268c-.0194.0307-.0367.0519-.0335.0486.015-.015.0133-.0088.0028-.0055a.419.419 0 0 1-.056.0131c-.052.01-.1313.0195-.2377.029-.2127.0189-.5344.0363-.9837.0517-.8986.0308-2.3085.0543-4.3946.072-4.1723.0353-11.0499.0472-21.961.0472-12.9607 0-19.8305-.0044-23.4925-.0475-1.831-.0215-2.8605-.053-3.4447-.0976-.292-.0224-.473-.0484-.5825-.076-.1095-.0275-.1405-.0517-.16-.0738a3.314 3.314 0 0 1-.121-.182 25.1016 25.1016 0 0 1-.2607-.4277c-.2144-.3578-.506-.8546-.854-1.4541-.6958-1.199-1.6164-2.8084-2.5934-4.5382l-3.531-6.251.2418-.5716c.0886-.2095.6922-1.532 1.6726-3.6658a6709.935 6709.935 0 0 1 3.9524-8.581 28814.1428 28814.1428 0 0 1 11.6705-25.2597c4.2148-9.1123 8.4128-18.179 11.5701-24.9863a5962.6588 5962.6588 0 0 1 3.8276-8.2395 915.882 915.882 0 0 1 1.0882-2.3298c.1275-.2715.2267-.4819.2956-.6263.0344-.0723.0614-.1283.0802-.1668a4.1296 4.1296 0 0 1 .022-.0443c.0052-.0101.0133-.0218.0043-.009.0585-.084.1035-.1452.1341-.1766.0306-.0315.0302-.0245.0248-.0255zm-.035 5.2047c-.0265.009-.0328.0182-.0392.0244a.1427.1427 0 0 0-.0141.0158.3546.3546 0 0 0-.0207.0307 1.7428 1.7428 0 0 0-.052.0913c-.0415.077-.0978.188-.1688.3316-.142.287-.342.704-.5918 1.2335-.4997 1.059-1.1985 2.5669-2.0297 4.3747-1.6623 3.6156-3.8533 8.4312-6.0332 13.2534-2.18 4.8222-4.3489 9.6509-5.9677 13.2934-.8094 1.8212-1.4814 3.346-1.9483 4.4252-.2335.5397-.4157.9678-.5385 1.2666a11.904 11.904 0 0 0-.139.3497 1.8675 1.8675 0 0 0-.035.1012.3592.3592 0 0 0-.0099.036c-.0024.0119-.0115.0157.0006.0585.0071.025.0102.0284.0199.0514.0097.0231.0235.0545.041.0946.0352.0803.0859.1949.1513.3415.1308.2932.3203.715.5602 1.2472a2464.417 2464.417 0 0 0 1.977 4.3692c1.6318 3.5995 3.8023 8.3762 5.976 13.1537 2.1738 4.7774 4.3507 9.5556 5.996 13.1585a2462.6097 2462.6097 0 0 0 2.0025 4.376c.2449.5335.4398.9566.5765 1.2514.0684.1473.1222.2626.1605.3436.0191.0405.0343.0726.0457.096.0114.0233.0151.0326.0253.0491.0405.0663.1128.109.1863.109.0734 0 .1424-.0375.1936-.0967.0163-.0189.0135-.0191.0174-.0263.004-.0066.0082-.0155.0133-.0257a5.0527 5.0527 0 0 0 .0411-.0839c.0342-.0715.0826-.1743.1444-.3075.1236-.2665.301-.6539.5268-1.149a1361.961 1361.961 0 0 0 1.8842-4.1605c1.5778-3.496 3.7357-8.2966 6.0925-13.558 2.3568-5.2613 4.4991-10.0754 6.0525-13.5934.7767-1.759 1.4061-3.194 1.8415-4.199.2177-.5024.3868-.8974.5017-1.172.0575-.1373.1015-.2445.1314-.3206a2.5342 2.5342 0 0 0 .0345-.0916.5005.5005 0 0 0 .01-.031c.0027-.0093.0064-.0119.0064-.039 0-.045-.008-.0502-.0172-.0777a2.6302 2.6302 0 0 0-.0386-.106 14.6818 14.6818 0 0 0-.146-.3598c-.1274-.3051-.3137-.7385-.5508-1.2822-.4743-1.0874-1.1517-2.6158-1.9652-4.4373-1.627-3.643-3.7982-8.458-5.9748-13.257-2.1766-4.799-4.3587-9.5823-6.0076-13.1624-.8245-1.79-1.5158-3.279-2.0066-4.3192-.2453-.5201-.4406-.928-.5776-1.2056a11.1434 11.1434 0 0 0-.1613-.3174 1.5058 1.5058 0 0 0-.0481-.0848c-.0066-.0104-.012-.0191-.0204-.0292-.0042-.0051-.0083-.0105-.019-.0189-.0109-.0084-.0883-.0158-.089-.0155zm.0288.2677c.0362.0684.0814.1566.1428.281.136.2757.3309.683.576 1.2027.4902 1.0392 1.1814 2.528 2.0057 4.3178 1.6487 3.5795 3.8306 8.3625 6.0071 13.1613 2.1765 4.7988 4.3477 9.6134 5.9745 13.2559.8134 1.8212 1.4908 3.3494 1.9647 4.436.237.5432.423.976.5496 1.2794.0633.1516.1117.271.1439.3548.016.042.028.0752.0356.0979.0057.0173.0056.0196.006.0142-.0012.0039-.002.0067-.0041.0126a2.5328 2.5328 0 0 1-.032.085c-.029.0737-.0726.18-.1298.3166-.1144.2732-.2832.6677-.5007 1.1698-.435 1.0042-1.0643 2.439-1.841 4.1978-1.5531 3.5176-3.6958 8.3316-6.0524 13.5927-2.3568 5.2612-4.5143 10.0616-6.092 13.5575a1332.7603 1332.7603 0 0 1-1.8842 4.1595c-.2256.495-.403.8822-.5262 1.148a29.8816 29.8816 0 0 1-.1434.3056c-.0168.035-.03.0622-.0391.0804-.0036.0077-.0063.012-.0084.016-.0215.0231-.041.0304-.0506.0304-.0101 0-.016-.0003-.028-.02.0043.0066-.0061-.0113-.0169-.0336a10.752 10.752 0 0 1-.0448-.094 60.5147 60.5147 0 0 1-.1597-.3426 380.2242 380.2242 0 0 1-.5765-1.2507 2501.3315 2501.3315 0 0 1-2.002-4.3755 11235.8933 11235.8933 0 0 1-5.996-13.1583 11251.186 11251.186 0 0 1-5.9758-13.1534 2480.4651 2480.4651 0 0 1-1.9769-4.369 395.181 395.181 0 0 1-.56-1.2466 55.9088 55.9088 0 0 1-.1506-.34 8.9967 8.9967 0 0 1-.04-.0924c-.0042-.01-.0032-.0066-.0057-.0134l.0013-.005a1.8286 1.8286 0 0 1 .0315-.0905c.0296-.0796.0758-.1956.1368-.344.122-.2967.3039-.7242.5371-1.2633.4665-1.078 1.1383-2.6024 1.9476-4.4233 1.6185-3.642 3.7876-8.4706 5.9674-13.2926 2.1798-4.8219 4.3703-9.637 6.0324-13.252.831-1.8075 1.53-3.3151 2.0291-4.373.2496-.529.4492-.9459.5902-1.2309.0668-.1352.1183-.2357.1574-.3089zm-.0204 3.9728c-.0602 0-.0654.0239-.0753.034a.2322.2322 0 0 0-.0242.0292 1.055 1.055 0 0 0-.0506.0798 6.891 6.891 0 0 0-.157.287c-.1305.2495-.3129.6138-.54 1.0775-.4544.9273-1.0876 2.252-1.8396 3.8432-1.5041 3.1825-3.483 7.4316-5.4532 11.6998-1.97 4.2681-3.9313 8.555-5.4 11.813-.7344 1.6289-1.3457 3.0005-1.7735 3.9843-.214.4919-.3817.887-.4966 1.1692a9.6442 9.6442 0 0 0-.132.3377 1.8914 1.8914 0 0 0-.035.105c-.0084.0283-.0154.044-.0152.079.0001.054.0143.082.0348.143.0204.0608.05.1405.0884.2386.0765.1962.188.4664.3301.801.2841.6692.6899 1.5952 1.1779 2.692.976 2.1937 2.281 5.0707 3.5975 7.94 1.3166 2.8692 2.6447 5.7307 3.6674 7.8931.5114 1.0812.9465 1.9875 1.2658 2.6333.1596.3228.29.5805.3872.763.0486.0913.0888.1636.1208.217a1.075 1.075 0 0 0 .0427.0668c.0128.0181.0198.0313.0446.0503.1519.1158.4093.1716.7343.2124.325.0408.7132.0565 1.0987.0492.3855-.0074.7676-.0377 1.0808-.0908.3132-.053.5538-.1138.685-.2457.0937-.0942.1645-.2138.2079-.3363.0433-.1225.0616-.2478.031-.3606.002.0073-.0051-.0285-.0112-.0743a10.9748 10.9748 0 0 1-.0231-.1906 70.427 70.427 0 0 1-.073-.6788 408.359 408.359 0 0 1-.2373-2.3826c-.1931-1.9835-.4482-4.6775-.7183-7.6028l-.9856-10.6757-.6823-.5845c-1.663-1.4242-2.6579-2.5943-3.2073-3.7601-.2789-.5917-.4206-.9202-.4958-1.3661-.0752-.446-.0832-1.0179-.0832-2.0813 0-1.066.0076-1.6376.0835-2.0843.0758-.4467.2192-.7772.5018-1.3768.8165-1.7327 2.177-3.1231 3.8877-3.9733 1.367-.6794 1.399-.684 3.5001-.684 1.793 0 2.285.0647 3.1314.4117 2.0383.8355 3.8174 2.626 4.633 4.662.2876.7182.4375 1.8828.4375 3.0447 0 1.1618-.15 2.3262-.4376 3.0444-.6737 1.682-1.7709 2.9525-3.6786 4.25-.1076.0733-.2096.1822-.2896.4388-.08.2566-.1545.6712-.2483 1.4096-.1877 1.4769-.4494 4.2475-.9456 9.5748-.398 4.2736-.6435 7.0574-.7686 8.7997-.0625.8711-.0951 1.4816-.1014 1.8899-.0032.2041.0001.3576.01.4702.0099.1126.0123.1802.0669.2463.0577.0699.1386.0976.2459.1293.1073.0318.2415.0584.396.0812.3088.0458.6977.0755 1.0927.0878.395.0123.7953.007 1.1265-.0186.1655-.0128.3137-.0307.4367-.0547.123-.024.2197-.051.2932-.0979.038-.0241.0365-.0348.0479-.0519.0113-.017.0235-.038.0378-.0634a5.282 5.282 0 0 0 .1099-.2108c.0894-.1792.2112-.435.3614-.7575.3003-.645.7134-1.556 1.201-2.6456.975-2.179 2.248-5.0717 3.5121-7.9735 1.2641-2.902 2.5193-5.8128 3.4586-8.0283.4696-1.1077.8603-2.0416 1.1338-2.7139.1367-.3361.2443-.6067.3179-.8018a6.2344 6.2344 0 0 0 .0846-.2356 1.3444 1.3444 0 0 0 .0231-.0758c.0056-.0211.0104-.0344.0104-.0623 0-.027-.0037-.0292-.0063-.038a.4841.4841 0 0 0-.0095-.0287 2.3838 2.3838 0 0 0-.0316-.0837 15.1473 15.1473 0 0 0-.1194-.2903c-.1042-.248-.2569-.603-.4515-1.0506-.3891-.8951-.9459-2.1603-1.617-3.6765-1.3424-3.0324-3.1422-7.0685-4.972-11.1546-1.83-4.0862-3.6897-8.2221-5.1524-11.4535-1.4627-3.2314-2.5238-5.5497-2.7707-6.0298-.0863-.1676-.1925-.3192-.2984-.4325-.106-.1132-.2013-.2004-.3285-.2004Zm.0288.2078c.0268.0113.0867.0373.1646.1206.0914.0978.1902.2375.2687.39.2342.4555 1.3038 2.7903 2.7664 6.0214 1.4625 3.231 3.3225 7.367 5.1523 11.4529 1.8298 4.086 3.6293 8.1221 4.9715 11.1541.671 1.516 1.228 2.781 1.6168 3.6754.1944.4472.3467.8015.4504 1.0481.0518.1234.0917.2198.118.2866a2.314 2.314 0 0 1 .0291.077l.0033.0102c-.0004.0019 0-.0005-.0024.009a1.2176 1.2176 0 0 1-.0199.0648 6.1441 6.1441 0 0 1-.082.2283c-.0726.1923-.1797.462-.3161.7974-.2728.6707-.6633 1.604-1.1327 2.7112-.939 2.2145-2.1938 5.1251-3.4578 8.0266-1.264 2.9014-2.537 5.7938-3.5116 7.9719-.4873 1.089-.9 1.9994-1.1996 2.6428-.1498.3217-.2712.5768-.3592.7532a5.1635 5.1635 0 0 1-.1058.203.8741.8741 0 0 1-.0305.0512c-.0069.0105-.0219.0166.0071-.0019-.0325.0208-.1165.0503-.229.0722-.1125.0219-.2547.0392-.4156.0516-.3216.025-.7172.0305-1.1066.0183-.3894-.012-.7735-.0417-1.0715-.0858-.149-.022-.2766-.048-.3704-.0757-.0938-.0278-.1531-.0665-.1556-.0695.0127.0153-.0158-.0426-.0247-.1438-.009-.1011-.0124-.25-.0093-.4505.0062-.4012.0384-1.01.1009-1.8795.1248-1.739.3702-4.5224.7683-8.7956.4961-5.3272.758-8.0994.9448-9.5688.0933-.7347.1686-1.1442.2412-1.377.0726-.2329.1262-.2787.2165-.3401 1.927-1.3108 3.059-2.6179 3.7468-4.335.305-.7616.4512-1.9365.4512-3.1142 0-1.1777-.1462-2.353-.4512-3.1144-.8362-2.0879-2.6459-3.909-4.7349-4.7654-.8628-.3537-1.4038-.4254-3.2015-.4254-2.102 0-2.2141.0233-3.5826.7034-1.7477.8687-3.1389 2.2906-3.973 4.0609-.2835.6015-.4372.955-.517 1.4254-.08.4704-.0863 1.0487-.0863 2.1155 0 1.0643.0068 1.643.086 2.1124.079.4695.2311.821.511 1.4148.5659 1.2008 1.5812 2.3891 3.2545 3.8222l.625.5353.9788 10.6002c.2701 2.9256.5248 5.6197.718 7.6037.0965.992.1778 1.8063.2377 2.3836.0299.2886.0545.5181.0731.681.0093.0814.0171.1461.0234.1938.0063.0478.0084.0704.016.0987.0152.056.0078.1517-.0266.249-.0345.0975-.094.1965-.1643.2672-.0557.056-.2843.1427-.5844.1935-.3001.0509-.6756.0809-1.0536.088-.378.0073-.7594-.0082-1.072-.0475-.3128-.0393-.5612-.112-.6452-.176.0131.01.0034.003-.0052-.009a.9444.9444 0 0 1-.0353-.0556 5.1001 5.1001 0 0 1-.1162-.2088c-.0955-.1794-.2256-.4362-.3848-.7581-.3183-.644-.753-1.5496-1.264-2.6303-1.0223-2.1613-2.3504-5.0225-3.6667-7.8912-1.3163-2.8688-2.6212-5.7454-3.5967-7.938-.4878-1.0963-.8932-2.0217-1.1765-2.689-.1417-.3337-.253-.603-.3283-.7961a5.4956 5.4956 0 0 1-.085-.23c-.0189-.0559-.0252-.1045-.0251-.0839 0 .0161.0007-.003.0074-.0254a1.8008 1.8008 0 0 1 .0318-.0943 9.5128 9.5128 0 0 1 .1292-.3308c.1138-.2797.2814-.6737.495-1.165.4271-.9823 1.0382-2.3535 1.7723-3.982 1.4684-3.2571 3.4294-7.5436 5.3993-11.8114 1.97-4.2677 3.9487-8.5167 5.4523-11.6984.7519-1.5908 1.3852-2.915 1.8388-3.8408.2268-.4629.4086-.8264.5377-1.073a6.8056 6.8056 0 0 1 .1523-.2789c.0084-.0142.0126-.0198.0193-.0303zM32.1558 53.1329c-.0391.0109-.068.0313-.0981.056-.0602.0496-.1228.1225-.1934.2185-.1412.192-.3094.4744-.4776.8089-.4924.9798-3.5087 7.2767-6.4422 13.426a4526.058 4526.058 0 0 0-4.0093 8.424 1059.3084 1059.3084 0 0 0-1.344 2.8419c-.3338.7093-.536 1.1427-.5785 1.2469l-.2894.7086 2.847 5.1577c.777 1.4078 1.5152 2.7243 2.0788 3.7117.2818.4937.52.9054.6976 1.205.0888.15.1624.2718.2192.3626.0568.0907.0919.1456.123.1815.0812.094.214.1643.5142.2105.3001.0462.7834.0774 1.6117.0993 1.6566.0436 4.691.049 10.3473.049 3.5486 0 6.5902-.0178 8.7526-.048 1.0812-.015 1.9424-.0331 2.5382-.0538.298-.01.5292-.0212.6897-.0328a2.7473 2.7473 0 0 0 .1888-.0183.5298.5298 0 0 0 .0595-.0112.1258.1258 0 0 0 .0286-.01c.011-.0054.0277-.0087.0473-.0404.0232-.0377.0148-.05.0142-.0593a.1488.1488 0 0 0-.0033-.0205.3152.3152 0 0 0-.0093-.0329 1.8916 1.8916 0 0 0-.0335-.0932 13.3973 13.3973 0 0 0-.134-.333c-.119-.287-.2961-.7025-.5233-1.2283-.4545-1.0516-1.1093-2.5445-1.8989-4.3328-1.5791-3.5765-3.6976-8.3335-5.8292-13.0956-2.1315-4.7622-4.2762-9.5296-5.9084-13.1277-.816-1.799-1.504-3.3057-1.998-4.3733-.2472-.5339-.4456-.958-.5878-1.2543a16.9766 16.9766 0 0 0-.1702-.3472 2.9684 2.9684 0 0 0-.0525-.0993c-.0141-.025-.016-.0357-.0414-.062-.0347-.036-.0962-.0451-.1354-.0342zm38.2263.036c-.0006 0-.06.0226-.0669.0296a.1168.1168 0 0 0-.0133.0158.3282.3282 0 0 0-.018.028 2.0124 2.0124 0 0 0-.047.0855 15.057 15.057 0 0 0-.1613.3201c-.1377.2793-.3349.688-.5828 1.2081-.4958 1.0403-1.195 2.5262-2.03 4.3102-1.6697 3.568-3.881 8.3286-6.0878 13.1-2.2067 4.7715-4.4087 9.5538-6.0593 13.1652-.8254 1.8057-1.513 3.3187-1.9943 4.3914a118.179 118.179 0 0 0-.5592 1.2606 17.686 17.686 0 0 0-.1482.3496 2.8856 2.8856 0 0 0-.0392.1003.652.652 0 0 0-.0114.0339c-.003.0099-.0067.0139-.0071.0405a.099.099 0 0 0 .033.0735c.0124.011.0205.0141.0271.017a.1093.1093 0 0 0 .03.0088.5916.5916 0 0 0 .059.0088 5.336 5.336 0 0 0 .1987.0134c.172.0088.4236.0166.7474.0238.6476.0145 1.583.0263 2.7376.0348 2.3092.0168 5.4942.0208 8.9979.0077l12.7977-.0481 2.607-5.4814 2.6011-5.4682-6.383-13.809c-1.7503-3.7867-3.3615-7.2287-4.5474-9.7243-.593-1.2477-1.0795-2.2587-1.4243-2.9583-.1724-.3498-.3092-.6216-.4066-.807a5.3967 5.3967 0 0 0-.1167-.2135.7982.7982 0 0 0-.0383-.0602.1977.1977 0 0 0-.0199-.024c-.0086-.0088-.0114-.0336-.0745-.0326zm-38.2053.1633c.0115.0209.025.0463.043.0815.0408.0801.0976.1953.1683.3428.1414.2949.3397.7186.5866 1.252.4938 1.067 1.1816 2.5732 1.9976 4.372 1.632 3.5977 3.7767 8.365 5.9081 13.1269 2.1314 4.762 4.2497 9.5188 5.8287 13.0949.7895 1.788 1.4443 3.2808 1.8983 4.3315.227.5253.4039.9404.5222 1.2258.0591.1427.1037.253.1322.3278.0033.0088.0042.0117.007.0194a3.0643 3.0643 0 0 1-.1395.0135c-.156.0112-.3862.0222-.6829.0325-.5933.0206-1.4539.0388-2.5344.054-2.161.03-5.2018.0474-8.7498.0474-5.6562 0-8.6915-.0055-10.3425-.049-.8256-.0216-1.3057-.0532-1.5883-.0967-.2826-.0436-.352-.0904-.4025-.1487-.0078-.0088-.0503-.07-.1058-.1586a18.1462 18.1462 0 0 1-.217-.3587c-.1768-.2982-.4145-.7089-.696-1.202-.5629-.9864-1.3007-2.3024-2.0775-3.7096l-2.8037-5.0792.2557-.6258c.0314-.077.2408-.5289.5744-1.2379s.7952-1.6848 1.3437-2.8413a4534.887 4534.887 0 0 1 4.0093-8.4238c2.9334-6.149 5.9548-12.4561 6.4404-13.4224.1645-.3274.33-.6037.4612-.7821.0657-.0893.124-.1541.1616-.1851.0009-.001.0007-.0003.0017-.0011zm38.211.109c.0234.0417.0456.0805.0795.145.0959.1826.2324.4538.4044.8029.344.698.8304 1.7085 1.4232 2.9558 1.1855 2.4947 2.7965 5.9364 4.5466 9.7227l6.346 13.7291-2.563 5.3887-2.557 5.3758-12.6813.0475c-3.5031.0133-6.6876.0088-8.9957-.0077-1.1541-.0088-2.089-.02-2.7349-.0344-.323-.0077-.5736-.015-.7422-.0234a3.6054 3.6054 0 0 1-.1395-.01c.0044-.011.0066-.017.012-.03.0328-.0809.0822-.1972.1465-.3456.1287-.2968.3176-.7227.5581-1.2586.4811-1.072 1.1686-2.5846 1.9938-4.39 1.6504-3.611 3.8524-8.3931 6.059-13.1644 2.2067-4.7712 4.4181-9.5316 6.0877-13.0992.8347-1.7838 1.534-3.2696 2.0293-4.3091.2477-.5197.4445-.9279.5815-1.2056.0628-.1274.1095-.2197.146-.2898zM32.0296 57.359c-.0579.0112-.0617.033-.0766.0503a.5985.5985 0 0 0-.0457.0618 3.1658 3.1658 0 0 0-.121.2047c-.0967.1746-.2261.426-.3843.7447-.3165.6373-.7476 1.543-1.2543 2.6294-1.0136 2.1728-2.3292 5.0679-3.6305 7.9774-1.3012 2.9096-2.5879 5.8333-3.5434 8.0632-.4777 1.115-.8727 2.0565-1.1455 2.7366-.1364.34-.2423.6146-.313.8141a4.0224 4.0224 0 0 0-.0794.243.89.89 0 0 0-.0196.0818c-.0043.0237-.0093.0408-.003.0746.009.0484.0299.0988.0645.1821.0345.0834.0825.1919.1425.3231.12.2626.2883.6163.493 1.0364.4094.8404.9638 1.9462 1.5652 3.1158.7534 1.4654 1.3314 2.5417 1.7569 3.2678.2127.363.387.6385.5278.833.1409.1944.2337.3096.3492.3565.039.0157.0664.0168.1164.0227.05.0055.1152.0112.1956.0166.1607.011.3825.0212.6595.0312.5539.0201 1.3276.0384 2.2654.0542 1.8756.0315 4.4068.0528 7.1418.056 3.985.0044 6.4877-.0044 8.0297-.0397.771-.0176 1.3017-.0417 1.6595-.074.179-.0163.3143-.0345.4172-.0559.1029-.0214.1727-.0425.2282-.0833.0582-.0428.1031-.1242.1069-.2253.0037-.1011-.0201-.229-.0767-.42-.1133-.3817-.3636-1.0147-.8415-2.1124-.9558-2.1954-2.8221-6.2448-6.3122-13.7865-2.7607-5.9654-4.6515-10.0077-5.8785-12.5544-.6136-1.2733-1.061-2.1724-1.369-2.7527-.1541-.2901-.2732-.5002-.3623-.6397-.0446-.0697-.0812-.1217-.1145-.16a.294.294 0 0 0-.0523-.0489c-.02-.0142-.0489-.0334-.096-.0243zm38.3392.0486c-.0438 0-.0653.0182-.0838.0328a.3509.3509 0 0 0-.0505.0512c-.0335.0399-.071.0938-.1162.1654-.0903.1431-.21.356-.3641.6476-.3083.5832-.753 1.4794-1.358 2.738-1.21 2.517-3.061 6.4829-5.7375 12.2826-2.0134 4.3626-3.8552 8.374-5.201 11.3225-.673 1.4743-1.222 2.6827-1.6063 3.5368-.1921.427-.343.7655-.4479 1.0044-.0524.1195-.0934.214-.1224.2827-.0289.0687-.0432.0992-.0527.1364-.0398.1546-.0478.2848.0052.3945.0529.1097.1625.1755.2986.2108.0694.018.1779.0243.3622.0338.1844.01.433.0182.7373.026.6087.0156 1.44.0277 2.4194.0366 1.9588.0179 4.5099.023 7.0545.0167 2.5445-.0066 5.0825-.0237 7.0144-.0512.966-.0136 1.7802-.03 2.3688-.0484a24.645 24.645 0 0 0 .705-.0292 5.988 5.988 0 0 0 .2102-.0164c.0538-.0055.0838-.0066.1235-.0222.238-.091.4588-.3622.8496-1.0511.3908-.689.9483-1.807 1.8208-3.6142.6907-1.4307 1.2178-2.5735 1.5651-3.3908.1736-.4086.3024-.7357.3846-.9784.041-.1214.0703-.2215.088-.3024.0178-.081.0292-.1378.0123-.2023-.0078-.03-.0193-.0563-.0408-.1088a13.6097 13.6097 0 0 0-.0892-.2119 80.1049 80.1049 0 0 0-.3225-.737 466.335 466.335 0 0 0-1.1472-2.5652c-.959-2.1314-2.2683-5.0196-3.6965-8.1504-1.8964-4.1571-3.2154-7.0035-4.0887-8.8118-.4367-.9041-.762-1.5487-.9932-1.9694-.1156-.2104-.2074-.3643-.2801-.4694-.0364-.0526-.0675-.093-.098-.1242-.0304-.031-.0559-.0642-.1228-.0642zm-38.3114.1745c.0214.027.045.058.0789.111.0838.1311.2017.3386.3546.6265.3057.5758.7528 1.4741 1.3658 2.7465 1.226 2.5446 3.1166 6.5865 5.8771 12.5516 3.4901 7.5416 5.3568 11.5918 6.3106 13.7827.477 1.0955.7257 1.7274.8336 2.0909.054.1817.0714.2966.0691.3595-.0023.063-.011.0669-.031.0817-.0118.0088-.0647.032-.1561.0511-.0914.019-.2217.037-.3965.0527-.3496.0317-.8777.0557-1.6468.0734-1.5381.0351-4.0407.0446-8.0253.0399-2.7341-.0033-5.2649-.0245-7.139-.056-.9371-.0158-1.7102-.0342-2.262-.0542a22.7175 22.7175 0 0 1-.6538-.0308 5.1848 5.1848 0 0 1-.1865-.016c-.045-.0054-.0797-.0153-.0683-.011-.0224-.0088-.1338-.1071-.2684-.293-.1346-.1859-.307-.4576-.5181-.8177-.422-.7203-.999-1.7949-1.7517-3.2588-.6008-1.1685-1.155-2.2738-1.5635-3.1125-.2043-.4193-.3723-.7718-.4912-1.032a10.2865 10.2865 0 0 1-.1398-.3171 1.6231 1.6231 0 0 1-.0533-.1444c.0032.0173.0004.0077.003-.0066a.7414.7414 0 0 1 .0158-.0642 3.8895 3.8895 0 0 1 .0756-.231c.0691-.1951.1744-.4686.3103-.8074.2717-.6776.6664-1.6182 1.1439-2.7325.9548-2.2284 2.241-5.1516 3.542-8.0604 1.301-2.9089 2.6165-5.8036 3.6293-7.975.5065-1.0856.9373-1.9903 1.2524-2.625.1576-.3173.2865-.5673.3805-.7373a3.0592 3.0592 0 0 1 .1088-.1845zm38.3144.0363a.8026.8026 0 0 1 .0655.084c.0659.0952.1561.246.2701.4535.228.4149.5523 1.0577.9883 1.9604.872 1.8055 2.191 4.6513 4.087 8.808 1.4282 3.1306 2.7374 6.0186 3.6963 8.1496a463.1362 463.1362 0 0 1 1.1466 2.5643c.1376.3112.2462.5591.3218.7351.0378.088.0673.158.088.2086.0208.0507.0341.0899.033.0856-.0011-.0044.0013.0447-.0139.1145-.0153.0698-.043.1653-.0827.2827-.0794.2348-.2067.5589-.3793.965-.3452.8124-.8717 1.9535-1.5617 3.3827-.872 1.8062-1.4294 2.9234-1.815 3.6032-.3857.6798-.6029.9112-.7545.9691.0098-.0033-.0276.0055-.0767.011-.049.0055-.1172.01-.202.0156-.1696.0099-.4062.02-.6995.0292-.5866.0184-1.4004.0344-2.3658.048-1.9308.0274-4.468.045-7.012.0512-2.544.0066-5.095.0011-7.0526-.0166-.9788-.0088-1.8093-.0212-2.4161-.0366a29.6907 29.6907 0 0 1-.7327-.0257c-.1815-.0099-.3084-.0237-.3255-.0281-.1083-.0281-.1545-.0636-.1776-.1116-.0231-.048-.0272-.1318.0074-.2662-.0024.0099.0158-.0434.044-.1105a24.144 24.144 0 0 1 .121-.28c.1046-.2379.2554-.576.4475-1.0027.384-.8535.9328-2.0619 1.6056-3.536 1.3457-2.9481 3.1878-6.9593 5.201-11.3216 2.6765-5.7995 4.527-9.7652 5.736-12.2802.6045-1.2575 1.0489-2.1525 1.355-2.7314.153-.2895.2716-.5003.357-.6356a1.4355 1.4355 0 0 1 .0966-.1384z"/><path style="color:#000;font-style:normal;font-variant:normal;font-weight:400;font-stretch:normal;font-size:medium;line-height:normal;font-family:sans-serif;font-variant-ligatures:normal;font-variant-position:normal;font-variant-caps:normal;font-variant-numeric:normal;font-variant-alternates:normal;font-feature-settings:normal;text-indent:0;text-align:start;text-decoration:none;text-decoration-line:none;text-decoration-style:solid;text-decoration-color:#000;letter-spacing:normal;word-spacing:normal;text-transform:none;writing-mode:lr-tb;direction:ltr;text-orientation:mixed;dominant-baseline:auto;baseline-shift:baseline;text-anchor:start;white-space:normal;shape-padding:0;clip-rule:nonzero;display:inline;overflow:visible;visibility:visible;opacity:1;isolation:auto;mix-blend-mode:normal;color-interpolation:sRGB;color-interpolation-filters:linearRGB;solid-color:#000;solid-opacity:1;vector-effect:none;fill-opacity:1;fill-rule:nonzero;color-rendering:auto;image-rendering:auto;shape-rendering:auto;text-rendering:auto;enable-background:accumulate;fill:#fff1b5;stroke:#ffb000;stroke-opacity:1;stroke-width:.05;stroke-miterlimit:4;stroke-dasharray:none" d="M51.1146 6.3805c-.0695.018-.1353.0588-.1914.1181-.0139.0146-.013.017-.016.0221a.4623.4623 0 0 0-.0096.0164 2.2563 2.2563 0 0 0-.0247.0479c-.0202.0398-.048.0959-.0835.169a78.6104 78.6104 0 0 0-.3024.6334c-.2602.5497-.635 1.3488-1.108 2.3615-.946 2.0253-2.285 4.9057-3.8858 8.357-3.2015 6.9028-7.4497 16.0889-11.6942 25.2824-4.2444 9.1936-8.4849 18.3948-11.671 25.3278-1.593 3.4665-2.9227 6.366-3.8572 8.414a568.8136 568.8136 0 0 0-1.0892 2.398 82.574 82.574 0 0 0-.2918.654 13.2882 13.2882 0 0 0-.0778.1799 1.9851 1.9851 0 0 0-.0218.053c-.0054.014-.0083.0181-.0128.0386-.0165.0755.004.138.0343.234.0304.0962.0782.2182.1441.3694.1319.3024.336.7207.6158 1.2608.5593 1.0803 1.4198 2.6476 2.598 4.7342a1629.351 1629.351 0 0 0 2.5274 4.4609c.3384.5947.6218 1.091.8297 1.4533.208.3622.3375.5858.3789.6512l.2932.463H79.054l1.8093-3.7384a2321.0992 2321.0992 0 0 0 3.1812-6.602l1.4163-2.9553-17.0153-37.1325c-4.6742-10.2005-8.935-19.4854-12.0346-26.2275a5634.0676 5634.0676 0 0 0-3.6851-8.0025 866.992 866.992 0 0 0-1.014-2.1898 118.5644 118.5644 0 0 0-.2692-.5755 15.052 15.052 0 0 0-.0919-.1908.2192.2192 0 0 0-.0112-.0205c-.0018-.0029-.0003-.004-.0139-.0178-.0577-.058-.1414-.0652-.211-.0473zm.0754.1796.0141.0284c.0163.0334.04.0833.0707.1485.0617.1304.152.323.269.5744.2341.5029.5758 1.2412 1.0136 2.1892.8756 1.8961 2.135 4.6313 3.6848 8.0023 3.0996 6.742 7.3605 16.027 12.0347 26.2275l16.9786 37.0524-1.3783 2.8762a2318.8435 2318.8435 0 0 1-3.1809 6.6015l-1.7585 3.6333H24.3007l-.2385-.3768c-.0317-.05-.167-.2822-.3747-.644a470.5944 470.5944 0 0 1-.8293-1.4528 1626.1965 1626.1965 0 0 1-2.527-4.4603c-1.1777-2.0856-2.0375-3.6519-2.5948-4.7282-.2787-.5382-.4818-.9543-.6106-1.2496-.0644-.1477-.1103-.2653-.1373-.3508-.027-.0854-.0277-.1467-.0297-.1375-.0029.013 0 .0008.0043-.011a2.3226 2.3226 0 0 1 .0199-.0484c.0175-.0417.043-.1011.0764-.1772.0668-.1521.1647-.3711.2913-.6523a571.511 571.511 0 0 1 1.089-2.3973c.9343-2.0478 2.2636-4.947 3.8566-8.4134 3.186-6.9329 7.4266-16.134 11.671-25.3275s8.4928-18.3795 11.6942-25.282c1.6007-3.4514 2.9396-6.3318 3.8855-8.357.473-1.0125.8475-1.8112 1.1074-2.3603.13-.2746.2315-.4868.302-.6318.0351-.0725.0625-.1283.0818-.1662a1.72 1.72 0 0 1 .0223-.043l.001-.0018c.0338-.0342.0723-.0568.0993-.0637.0244-.0063.0278-.002.0291-.001zm-.016 4.3296c-.0592-.0111-.077.016-.0895.027a.2143.2143 0 0 0-.0291.0323.9644.9644 0 0 0-.0582.0878c-.0447.0736-.1035.1801-.1768.3193-.1467.2784-.3511.6865-.6051 1.2073-.508 1.0416-1.215 2.533-2.0539 4.3268-1.6777 3.5877-3.8827 8.385-6.0776 13.2095-2.1948 4.8244-4.3792 9.6758-6.015 13.3715-.8178 1.8478-1.4984 3.4069-1.975 4.5294-.2382.5613-.4254 1.0134-.5534 1.3388a10.153 10.153 0 0 0-.1471.3918 2.0913 2.0913 0 0 0-.039.1233c-.0091.0336-.016.0556-.016.0893 0 .0407.008.0518.0172.081.0093.0292.0222.0658.0391.111.0338.0903.0831.2144.1474.371.1287.3131.3169.7559.5565 1.31.4792 1.1083 1.1636 2.662 1.9858 4.5117 1.6444 3.6992 3.8393 8.5815 6.0417 13.4475 2.2024 4.866 4.4122 9.7154 6.0865 13.3486.8372 1.8166 1.5406 3.3293 2.0422 4.388.2508.5295.451.9454.5929 1.2298a9.989 9.989 0 0 0 .1686.3264c.0206.0376.0373.0666.0517.0889a.2777.2777 0 0 0 .022.0306.1141.1141 0 0 0 .0177.0175c.0089.0077.0219.0224.0617.0224.0808 0 .1376-.039.202-.087a.9767.9767 0 0 0 .1847-.1823c.0197-.0254.0188-.0303.03-.0523a4.9518 4.9518 0 0 0 .0437-.0885 28.847 28.847 0 0 0 .1504-.319c.128-.2747.3105-.6713.5415-1.177.462-1.0113 1.1183-2.4586 1.9206-4.2344 1.6045-3.5518 3.7927-8.4187 6.1774-13.7434l8.6887-19.4005-8.8054-19.494c-2.661-5.891-4.8851-10.76-6.4648-14.1607-.7899-1.7004-1.4186-3.0334-1.8605-3.9442-.221-.4553-.3952-.8051-.52-1.0432a5.8034 5.8034 0 0 0-.1507-.2737.9574.9574 0 0 0-.0503-.0773.2469.2469 0 0 0-.0245-.0287c-.0097-.0096-.0169-.0245-.0582-.0323zm-.0196.2466a5.811 5.811 0 0 1 .139.2526c.123.2347.2967.5833.5172 1.0378.441.9089 1.0695 2.2415 1.8591 3.9414 1.5793 3.3996 3.8032 8.2685 6.464 14.1591l8.7709 19.4172-8.6542 19.3234c-2.3846 5.3245-4.5727 10.1913-6.177 13.7428a1177.391 1177.391 0 0 1-1.9204 4.2336c-.231.5055-.4134.9018-.541 1.1756a28.66 28.66 0 0 1-.1492.3168 4.4634 4.4634 0 0 1-.042.085c-.01.0196-.0248.0397-.0113.0224a.8106.8106 0 0 1-.1485.147c-.0306.0229-.04.024-.0571.0313-.0082-.014-.0144-.0234-.0253-.0435a10.2202 10.2202 0 0 1-.1648-.32c-.1408-.2823-.341-.6977-.5916-1.2265-.501-1.0576-1.204-2.5699-2.041-4.3862-1.674-3.6325-3.8838-8.4815-6.086-13.3472-2.2023-4.8657-4.397-9.7481-6.0411-13.4467-.8221-1.8493-1.5067-3.4026-1.9854-4.5097-.2393-.5536-.4272-.996-.555-1.3071a13.1667 13.1667 0 0 1-.1453-.3652 2.2792 2.2792 0 0 1-.0359-.102c-.0076-.024-.0084-.0485-.0084-.0243 0 .0087.0018-.0123.0093-.0397a1.981 1.981 0 0 1 .0356-.112 9.8996 9.8996 0 0 1 .144-.3842c.1268-.3225.3138-.7736.5517-1.3341.4758-1.121 1.1563-2.6793 1.974-4.5267 1.6353-3.6948 3.8192-8.5459 6.0138-13.3699 2.1947-4.824 4.3998-9.621 6.077-13.2078.8387-1.7933 1.5454-3.284 2.0526-4.3238.2536-.52.4575-.9274.6024-1.2024.0718-.1364.1291-.2396.17-.307zm-.0373 4.7632c-.0713.0166-.139.0572-.1966.1167-.0144.015-.0156.0195-.0204.0274a.635.635 0 0 0-.0158.027 3.0169 3.0169 0 0 0-.044.084c-.036.0703-.0852.17-.1472.2977-.124.2555-.2991.6228-.518 1.0864-.438.9272-1.0512 2.2395-1.7812 3.809-1.4599 3.1392-3.3864 7.3079-5.3092 11.4844-1.9229 4.1766-3.842 8.361-5.287 11.5314-.7225 1.5852-1.3261 2.917-1.7528 3.8676-.2133.4753-.3824.8553-.4999 1.1244a20.892 20.892 0 0 0-.1368.319c-.016.0389-.0289.0701-.0383.0946-.0094.0246-.015.0371-.0199.06-.0076.0352-.003.0564.0017.0836a.939.939 0 0 0 .0229.0943c.0207.073.0529.169.0973.29.089.2424.2265.5856.4156 1.0367.3781.9024.962 2.2349 1.7691 4.0377 1.6144 3.6055 4.1225 9.092 7.665 16.7727l.563 1.2204h1.74c.81 0 1.2262 0 1.47-.061.1218-.0305.212-.0866.2572-.1722.0454-.0857.0452-.1767.045-.2803-.0002-.0437-.0077-.1386-.0213-.3086a107.737 107.737 0 0 0-.0593-.7018 611.1056 611.1056 0 0 0-.2173-2.4194 2341.8231 2341.8231 0 0 0-.7128-7.6368l-1.0125-10.6787-.6457-.4913c-2.9662-2.2577-4.3657-5.3386-3.8779-8.5063.8552-5.554 6.733-8.8694 11.7572-6.6354 5.9037 2.6252 6.877 10.796 1.7395 14.581-.317.2335-.6156.4875-.8442.7111-.1143.1118-.211.216-.2844.3076-.0734.0916-.125.1657-.1464.2452-.0157.0586-.0284.1637-.051.3502a55.6708 55.6708 0 0 0-.0855.7578c-.0677.6313-.156 1.5015-.2573 2.5302-.2024 2.0573-.457 4.7484-.704 7.4265-.2472 2.6781-.487 5.3432-.6596 7.3491-.0862 1.003-.1557 1.8412-.201 2.434-.0226.2964-.039.5313-.0486.6955a6.4931 6.4931 0 0 0-.0093.193 1.0627 1.0627 0 0 0-.0003.0574.2807.2807 0 0 0 .0017.0227c.0009.008-.0033.0126.0122.0415.0325.0604.0662.0606.1003.0722a.8764.8764 0 0 0 .123.0295c.0972.0177.227.0329.3837.0457.3133.0257.7316.0416 1.1828.0416h1.6938l4.9032-11.2769a3589.0816 3589.0816 0 0 0 3.498-8.069 942.5745 942.5745 0 0 0 1.1047-2.5668c.1345-.3143.2418-.5663.3187-.7485.077-.1822.1217-.2896.1371-.3322.0574-.1586.0127-.3795-.1577-.877-.1704-.4974-.48-1.2688-1.0028-2.4883-1.0456-2.4391-2.9439-6.6695-6.2804-14.057-2.0943-4.637-4.0106-8.8647-5.4107-11.9409-.7-1.538-1.2711-2.788-1.671-3.6576a178.723 178.723 0 0 0-.4661-1.0074 25.9609 25.9609 0 0 0-.127-.2687 3.4941 3.4941 0 0 0-.0362-.0727.7343.7343 0 0 0-.012-.0225c-.0035-.0064.0042-.004-.0203-.0287-.0581-.0583-.1417-.0675-.213-.0508zm.0419.1818c.0265-.0062.033-.0012.0359.001.0009.0019.0013.0024.0024.0045.0078.0153.0195.0388.0343.0692.0294.0608.0718.15.1262.2662.1087.2323.2657.5718.4656 1.0064.3996.869.9706 2.1191 1.6706 3.657 1.4 3.0759 3.316 7.3035 5.4102 11.9404 3.3365 7.3873 5.235 11.6179 6.279 14.0536.5221 1.2179.8306 1.9875.9976 2.4752.167.4878.1791.6965.1588.7527-.0089.0248-.0565.1411-.1332.3228-.0767.1817-.184.4336-.3185.7477a934.6264 934.6264 0 0 1-1.1044 2.5666 3587.4525 3587.4525 0 0 1-3.4977 8.0684L56.431 73.1777h-1.5722c-.447 0-.8618-.0157-1.1679-.0407-.153-.0126-.279-.0275-.3657-.0432a.7156.7156 0 0 1-.084-.02c0-.0057-.0002-.0083 0-.015.001-.0427.004-.106.0086-.187.0095-.1621.0261-.3964.0487-.6922.0452-.5917.1147-1.4294.201-2.432.1725-2.0053.412-4.6703.6592-7.3481.2471-2.6778.5017-5.3684.7041-7.4251.1012-1.0284.1894-1.8983.257-2.5286a56.433 56.433 0 0 1 .0849-.7553c.0225-.1849.0428-.3114.0462-.3243.0062-.0231.0454-.094.1118-.1769.0664-.0829.1588-.1828.2692-.2908.221-.2162.5146-.466.8246-.6944 5.2493-3.8674 4.253-12.2222-1.7743-14.9023-5.1353-2.2834-11.1426 1.107-12.0158 6.7778-.4988 3.2393.9407 6.3934 3.9494 8.6835l.5804.4418 1.0052 10.5972c.2774 2.9254.5297 5.6321.7128 7.6362a615.482 615.482 0 0 1 .217 2.4187c.0257.295.0457.5309.0593.7001a9.276 9.276 0 0 1 .0204.2944c.0003.0988-.0067.1612-.0231.1922-.0164.031-.0425.0546-.1382.0785-.1913.0478-.6156.0555-1.425.0555H46.003l-.5132-1.1124c-3.5424-7.6805-6.0504-13.1664-7.6642-16.7705-.8069-1.8021-1.3902-3.134-1.7672-4.0336-.1885-.4498-.3255-.7916-.4126-1.029-.0435-.1186-.0745-.2113-.093-.2764a.7811.7811 0 0 1-.0182-.0751c-.003-.017.0001-.0277-.0033-.0118-.0017.0078.0033-.0107.0117-.0325a3.9767 3.9767 0 0 1 .0364-.09c.0315-.0757.077-.182.1355-.316.117-.268.2858-.6478.499-1.1228.4264-.95 1.0302-2.2815 1.7525-3.8665 1.4448-3.17 3.3637-7.3542 5.2865-11.5305 1.9227-4.1764 3.8492-8.345 5.309-11.4839.7298-1.5694 1.3432-2.8813 1.7808-3.808.2188-.4632.3935-.8301.517-1.0845a17.817 17.817 0 0 1 .1457-.2947 2.9948 2.9948 0 0 1 .0411-.0784c.0042-.0075.0072-.0125.0095-.0164.0346-.0347.0742-.0568.1028-.0635zm19.225 36.5671c-.0392 0-.0521.0148-.0611.022a.12.12 0 0 0-.018.0174.285.285 0 0 0-.0226.0306 1.4751 1.4751 0 0 0-.0527.0892c-.0422.0755-.0994.185-.1719.3278-.145.2854-.3497.7028-.606 1.234-.5124 1.0624-1.2307 2.5798-2.0853 4.4012-1.7093 3.643-3.9637 8.5024-6.2062 13.3688-2.2426 4.8665-4.4733 9.74-6.1347 13.4112-.8307 1.8356-1.5189 3.3706-1.9954 4.4543-.2383.5418-.4236.9709-.5475 1.2688-.062.1489-.1083.2649-.139.3471a1.5604 1.5604 0 0 0-.0342.0996.2793.2793 0 0 0-.0089.037.1278.1278 0 0 0-.0022.0234c0 .01-.0029.025.0147.0536.0267.0433.0438.039.0546.0429.0109.0044.0191.0055.028.0077a.6409.6409 0 0 0 .0632.0088c.0504.0055.1203.0099.2105.0144.1804.0088.4415.0179.7753.0257.6676.0157 1.6258.0287 2.8045.038 2.3574.0188 5.5956.0239 9.1461.011l12.968-.048 2.615-5.465c.7464-1.56 1.3865-2.9532 1.8352-3.9845.2243-.5157.4008-.9408.5191-1.2521.0592-.1557.1038-.2825.133-.38a1.31 1.31 0 0 0 .0324-.1255c.0068-.0355.0127-.0618.0049-.1017-.0082-.0417-.0253-.087-.0541-.1618a11.0418 11.0418 0 0 0-.1194-.2934c-.1014-.2409-.2454-.571-.426-.9784-.3613-.8146-.8695-1.937-1.4757-3.2626-1.2124-2.6511-2.8173-6.1156-4.424-9.5567-1.6067-3.441-3.2152-6.8587-4.4349-9.4164-.6099-1.279-1.1225-2.3427-1.4893-3.0874-.1834-.3723-.33-.6646-.4348-.865a6.0891 6.0891 0 0 0-.1257-.231.9322.9322 0 0 0-.0405-.065.2138.2138 0 0 0-.0201-.025c-.0043-.0044-.009-.0096-.0183-.016-.0093-.0065-.0231-.0181-.056-.0181zm-38.3057.041c-.0427.0093-.0469.0235-.0554.0323a.2366.2366 0 0 0-.0215.026.9422.9422 0 0 0-.0449.068 5.7341 5.7341 0 0 0-.1357.2384c-.112.2056-.2674.5036-.4604.882-.3861.7568-.9225 1.8345-1.5584 3.1275-1.2717 2.586-2.9415 6.033-4.603 9.4944-1.6614 3.4613-3.3144 6.9366-4.552 9.5786-.619 1.321-1.134 2.4334-1.4945 3.2322-.1803.3994-.3219.7203-.4188.9503a7.5172 7.5172 0 0 0-.1115.2758 1.5105 1.5105 0 0 0-.0302.087c-.0073.024-.0136.0373-.0136.0706 0 .0424.0098.0586.0212.0905.0115.0318.0272.0704.0476.1173.0408.0936.0997.2189.1746.3723.1499.3069.3638.7262.622 1.2218.5162.9912 1.2092 2.2868 1.917 3.5893.7079 1.3024 1.4307 2.6115 2.0066 3.6297.2879.509.539.9455.7335 1.2723.1945.3269.3233.5353.4003.6236.0821.0942.2161.164.5219.2102.3058.0462.7992.0772 1.646.099 1.6933.0437 4.7976.0492 10.586.0492 3.5283 0 6.6393-.018 8.8761-.0478 1.1184-.015 2.0183-.0328 2.643-.0528.3123-.01.5555-.0206.7242-.0318a3.3248 3.3248 0 0 0 .1977-.0175 1.3365 1.3365 0 0 0 .0615-.01.202.202 0 0 0 .0285-.0087c.0111-.0044.028-.0066.0498-.0416.028-.0454.0157-.0589.0141-.073a.279.279 0 0 0-.0076-.0402 1.3067 1.3067 0 0 0-.032-.1037 8.5407 8.5407 0 0 0-.1333-.3526c-.1195-.3012-.2995-.7327-.5315-1.2768-.464-1.088-1.1363-2.6256-1.9491-4.4624-1.6255-3.6738-3.812-8.5442-6.0131-13.4036-2.201-4.8593-4.4164-9.7078-6.099-13.3379-.8414-1.815-1.5498-3.3254-2.0566-4.3807-.2535-.5276-.4564-.9413-.601-1.2234-.0724-.141-.13-.2489-.173-.3231a1.1188 1.1188 0 0 0-.055-.088.2212.2212 0 0 0-.0261-.0318.1067.1067 0 0 0-.0242-.0188.0914.0914 0 0 0-.0702-.0115zm38.3058.224c.0266.0474.055.0985.096.1768.1034.1978.2499.4896.433.8612.366.7432.8787 1.8067 1.4884 3.0851 1.2193 2.557 2.8275 5.9744 4.434 9.4151 1.6066 3.4408 3.2115 6.905 4.4235 9.5554.606 1.3252 1.1139 2.4472 1.4746 3.2607.1804.4067.324.7362.4245.9751.0503.1195.0896.2164.1173.2882.0276.0717.0441.1248.0451.1298-.0025-.0131 0 .0055-.0049.0307a1.1968 1.1968 0 0 1-.0277.1071c-.027.09-.0707.2143-.129.3675-.1165.3064-.292.7295-.5156 1.2436-.4473 1.0281-1.0868 2.4202-1.8325 3.9786l-2.5643 5.3594-12.8519.0479c-3.55.0132-6.7877.0077-9.144-.011-1.178-.0089-2.1359-.0221-2.8017-.0378-.3329-.0077-.593-.0163-.7702-.0254a3.1935 3.1935 0 0 1-.1694-.0118c.0033-.0088.0042-.0132.0082-.0239.029-.078.075-.1928.1365-.3406.123-.2956.3078-.724.5458-1.2652.476-1.0825 1.1644-2.617 1.9949-4.4524 1.661-3.6706 3.8914-8.5439 6.1338-13.41 2.2425-4.8662 4.497-9.7254 6.206-13.3678.8544-1.8211 1.5724-3.338 2.0843-4.3993.256-.5306.4605-.9475.6043-1.2307a9.9604 9.9604 0 0 1 .161-.3068zm-38.2859.029a7.76 7.76 0 0 1 .1634.3058c.1432.2792.3461.6921.5992 1.219.5061 1.0539 1.214 2.564 2.0552 4.3786 1.6823 3.6293 3.8974 8.4772 6.0982 13.3363 2.2009 4.859 4.3874 9.729 6.0126 13.4018.8126 1.8365 1.485 3.3738 1.9483 4.4603.2317.5433.4112.974.5295 1.2723.0592.1492.1032.2654.1303.3445.0053.0153.0066.0217.0106.0342a4.3474 4.3474 0 0 1-.1594.0139c-.1646.011-.4067.0214-.718.0314-.6224.02-1.5216.038-2.6394.0528-2.2355.0298-5.346.0475-8.8736.0475-5.7883 0-8.8932-.0055-10.5812-.049-.844-.0217-1.3346-.0534-1.6231-.097-.2886-.0436-.3593-.0904-.4101-.1487-.0422-.0484-.1872-.2714-.3805-.5962s-.444-.7604-.7316-1.2688c-.575-1.0168-1.2974-2.3253-2.0049-3.627-.7075-1.3017-1.4-2.5969-1.9154-3.5865-.2577-.4949-.4713-.9133-.6198-1.2174a9.9437 9.9437 0 0 1-.1711-.365 1.8411 1.8411 0 0 1-.0432-.1058c-.0092-.0253-.01-.0489-.01-.0272 0 .0175 0 .0022.0053-.0158a1.3652 1.3652 0 0 1 .0264-.076 7.3635 7.3635 0 0 1 .1085-.2687c.0959-.2273.2373-.5473.4172-.946.36-.7972.8747-1.9092 1.4934-3.2297 1.2373-2.641 2.89-6.116 4.5513-9.577 1.6612-3.4609 3.3309-6.9079 4.6021-9.493.6356-1.2925 1.1717-2.3695 1.557-3.1248.1927-.3776.3478-.6749.4583-.8775a5.6948 5.6948 0 0 1 .1145-.2015zm38.2089 4.7374c-.0408-.01-.105-.0032-.1422.0402-.0225.0261-.0206.0305-.0313.0506a3.1487 3.1487 0 0 0-.0414.0803 21.1048 21.1048 0 0 0-.1384.2844c-.117.2437-.2826.594-.4895 1.0353a856.1602 856.1602 0 0 0-1.6837 3.6218c-1.3802 2.9828-3.201 6.9396-5.0156 10.8955-1.8146 3.9558-3.623 7.9108-4.9775 10.8897a836.6587 836.6587 0 0 0-1.6355 3.6147c-.1973.4399-.3525.7883-.4583 1.0304a18.37 18.37 0 0 0-.121.2818 2.9535 2.9535 0 0 0-.0321.0793.8946.8946 0 0 0-.0093.0263c-.0025.0077-.0072.0033-.0071.0396.0001.0572.0412.0954.0726.1138s.0649.0293.1074.0399c.085.0211.2051.0374.3745.0522.3388.0297.8724.0508 1.6674.0649 1.59.028 4.2242.028 8.408.0088l10.5938-.0484 2.1276-4.3444c.5783-1.181 1.1068-2.2859 1.4922-3.1155.1927-.4148.3497-.7607.4596-1.0134a9.32 9.32 0 0 0 .1284-.3068 1.9795 1.9795 0 0 0 .036-.0979c.0087-.0266.0153-.043.0176-.0727.0034-.0434-.0044-.0453-.0098-.0634a1.2208 1.2208 0 0 0-.022-.0656 6.5852 6.5852 0 0 0-.083-.2127 41.0713 41.0713 0 0 0-.3144-.748c-.2716-.6327-.6613-1.5204-1.1307-2.5794-.9388-2.1178-2.1968-4.9197-3.4684-7.7302-1.2716-2.8105-2.5568-5.6294-3.55-7.7813-.4965-1.076-.9198-1.9852-1.2322-2.6434a52.4168 52.4168 0 0 0-.3807-.789c-.0961-.1935-.1508-.3035-.1926-.3609-.0692-.095-.1412-.171-.2102-.2214-.0345-.0252-.0675-.0452-.1082-.0552zm-38.1779.064c-.0508-.017-.0785.0064-.0911.0158a.1324.1324 0 0 0-.0253.0246.4648.4648 0 0 0-.0364.052 3.0175 3.0175 0 0 0-.0998.1758c-.082.1527-.1955.3776-.3376.6681-.2841.5811-.6826 1.4241-1.1667 2.467-.968 2.0859-2.2781 4.9708-3.6968 8.1516l-5.1762 11.6062 2.2004 4.2963a325.5065 325.5065 0 0 0 1.5943 3.0753c.2143.407.394.745.527.9896a17.67 17.67 0 0 0 .163.2945c.0415.073.0642.1137.0889.1451.0275.0351.058.0484.0924.0618a.7679.7679 0 0 0 .1243.0342c.099.02.2349.0368.418.0522.3663.0308.9207.0544 1.7205.0722 1.5995.0358 4.1802.0484 8.1822.0484 4.0522 0 6.6223-.0122 8.1807-.0475.7792-.0177 1.305-.041 1.6396-.0719.1674-.0154.2865-.0325.3707-.0538.0422-.011.0754-.0215.1066-.0399.0313-.0184.0728-.0576.0716-.1153-.001-.0418-.0082-.0455-.016-.0686a2.0188 2.0188 0 0 0-.033-.088 12.203 12.203 0 0 0-.1237-.2972 77.7466 77.7466 0 0 0-.4648-1.0552c-.4-.8946-.9712-2.1514-1.6568-3.6492-1.3713-2.9955-3.2007-6.9547-5.0362-10.904-1.8355-3.9492-3.677-7.8885-5.0721-10.8451-.6976-1.4783-1.2835-2.7108-1.7014-3.5762-.209-.4327-.376-.7735-.4942-1.008a10.4113 10.4113 0 0 0-.14-.2708 1.5456 1.5456 0 0 0-.043-.075.3268.3268 0 0 0-.0174-.0257.1273.1273 0 0 0-.0125-.0144c-.0058-.0058-.011-.0152-.0392-.0247zm38.1594.132c.007.004.0085.0034.0177.0102.0453.033.1091.0978.1694.1807.0096.0132.081.142.1762.3338.0953.1917.2232.4577.3792.7862.3118.6572.7353 1.5658 1.2317 2.6415.9927 2.1512 2.2776 4.9698 3.5491 7.78 1.2715 2.8101 2.5296 5.612 3.468 7.7291.4693 1.0586.8586 1.946 1.1298 2.5775.1356.3157.2416.5676.313.7441.0358.0883.0628.1578.0803.2062a1.168 1.168 0 0 1 .0187.0549c.0035.0119-.0003.0299.0024-.0044.001-.01-.0017.0077-.0087.0286a1.8289 1.8289 0 0 1-.0323.0884 9.2863 9.2863 0 0 1-.126.3004c-.1088.2502-.2653.5951-.4577 1.009-.3846.828-.9124 1.9323-1.4903 3.1123l-2.077 4.2404-10.4787.0481c-4.1835.0192-6.8175.019-8.404-.0088-.7932-.014-1.3248-.0354-1.6543-.0643-.1648-.0144-.2799-.031-.3462-.0475-.0115-.0033-.012-.0044-.0204-.0066.005-.0127.0085-.0217.0155-.0386a18.284 18.284 0 0 1 .1196-.2788c.1054-.241.2603-.5892.4575-1.0288.3944-.8792.9581-2.1245 1.6353-3.6138 1.3544-2.9786 3.1627-6.9335 4.9772-10.8892 1.8145-3.9558 3.6353-7.9124 5.0153-10.895a853.9718 853.9718 0 0 1 1.6834-3.621c.2068-.441.3722-.7909.4887-1.0336.0583-.1214.1043-.216.1371-.2816.0128-.0256.022-.0427.0305-.059zm-38.1942.1285c.0315.0588.0698.1316.1216.2343.1172.2326.2837.573.4925 1.0052.4175.8645 1.0034 2.0965 1.7008 3.5745 1.3949 2.956 3.236 6.8954 5.0713 10.8444 1.8354 3.949 3.665 7.9079 5.036 10.9029.6855 1.4975 1.2563 2.754 1.656 3.6477a78.08 78.08 0 0 1 .4636 1.0526c.0535.1248.0944.2233.1216.2922.0093.0234.0145.0382.0204.0544-.0088.0033-.0096.0044-.0223.0077-.0657.0165-.1794.0338-.3421.049-.3255.03-.8495.0534-1.6269.071-1.5548.0353-4.1248.0479-8.1766.0479-4.0016 0-6.582-.0131-8.1782-.0486-.798-.0178-1.3504-.0414-1.709-.0714-.1793-.015-.3105-.032-.3968-.0495a.6314.6314 0 0 1-.094-.0251c-.0192-.0077-.0234-.0157-.0137-.0033a2.5716 2.5716 0 0 1-.0737-.1222 17.515 17.515 0 0 1-.161-.2912 90.287 90.287 0 0 1-.526-.9874 325.9253 325.9253 0 0 1-1.5931-3.0737l-2.1597-4.2164L26.845 69.375c1.4184-3.18 2.7282-6.0642 3.6957-8.1487.4838-1.0423.882-1.8848 1.1651-2.4638.1416-.2895.2545-.513.3343-.6619.0233-.0435.037-.066.0544-.0962z"/><path style="color:#000;font-style:normal;font-variant:normal;font-weight:400;font-stretch:normal;font-size:medium;line-height:normal;font-family:sans-serif;font-variant-ligatures:normal;font-variant-position:normal;font-variant-caps:normal;font-variant-numeric:normal;font-variant-alternates:normal;font-feature-settings:normal;text-indent:0;text-align:start;text-decoration:none;text-decoration-line:none;text-decoration-style:solid;text-decoration-color:#000;letter-spacing:normal;word-spacing:normal;text-transform:none;writing-mode:lr-tb;direction:ltr;text-orientation:mixed;dominant-baseline:auto;baseline-shift:baseline;text-anchor:start;white-space:normal;shape-padding:0;clip-rule:nonzero;display:inline;overflow:visible;visibility:visible;opacity:1;isolation:auto;mix-blend-mode:normal;color-interpolation:sRGB;color-interpolation-filters:linearRGB;solid-color:#000;solid-opacity:1;vector-effect:none;fill-opacity:1;fill-rule:nonzero;color-rendering:auto;image-rendering:auto;shape-rendering:auto;text-rendering:auto;enable-background:accumulate;fill:#fff1b5;stroke:#ffb000;stroke-opacity:1;stroke-width:.05;stroke-miterlimit:4;stroke-dasharray:none" d="M51.0804 6.7906c-.0006.0001-.0469.034-.0509.0399a.2315.2315 0 0 0-.01.0164 1.3298 1.3298 0 0 0-.0237.044 8.2218 8.2218 0 0 0-.08.1594 61.6252 61.6252 0 0 0-.2942.611 459.8435 459.8435 0 0 0-1.0881 2.308c-.9317 1.9863-2.2542 4.8218-3.8377 8.226-3.167 6.8086-7.3776 15.8915-11.593 25.0025-4.2153 9.111-8.4354 18.2501-11.6207 25.171-1.5926 3.4606-2.9267 6.3666-3.8722 8.4373a530.9404 530.9404 0 0 0-1.1104 2.4446c-.1311.2914-.234.522-.3065.6873-.0726.1654-.1119.2553-.1273.3032-.0451.1404-.0626.2965-.0078.521.0548.2247.1767.5237.4063.9889.4593.9303 1.3528 2.5251 3.0164 5.466.9862 1.7435 1.8775 3.3448 2.5189 4.5196.3207.5875.5792 1.0684.7552 1.4066.088.1691.1556.3027.1997.395a2.235 2.235 0 0 1 .0476.1056.4183.4183 0 0 1 .0087.0229c.0004.0011 0 .0011-.0006-.0022-.0002-.001.001-.0066.0007-.0077-.001-.0044-.0037-.0088.0028-.029 0 0 .0053.0187.0065.0303.0026.0237.0035.051.013.0618.0143.016.024.0197.0308.0229.0137.0066.0196.0066.0258.0088.0124.0022.0227.0044.036.0055.0263.0033.0619.0055.109.0077.0941.0044.2329.0099.4153.0142.3647.0088.9033.018 1.5972.0266 1.3879.0167 3.3974.0317 5.8793.044 4.9637.0246 11.8165.0387 19.3602.0363l27.4895-.0088 3.145-6.541 3.1384-6.5278-5.2298-11.413c-2.8665-6.2557-10.4934-22.901-16.9488-36.9897-3.2277-7.0446-6.1788-13.4428-8.3335-18.0768-1.0773-2.317-1.9556-4.193-2.5698-5.4882-.307-.6476-.548-1.15-.7152-1.4902a17.2447 17.2447 0 0 0-.1947-.3871 2.2972 2.2972 0 0 0-.0555-.1012.3483.3483 0 0 0-.0207-.0317c-.0037-.005-.0073-.0103-.0163-.0186-.0045-.0042-.01-.0094-.0229-.0158-.0128-.0064-.0717-.0057-.072-.0056zm.0334.2797c.0442.0846.1033.2024.1822.363.1664.3387.4073.8406.7142 1.4878.6138 1.2944 1.4918 3.17 2.569 5.4868 2.1544 4.6335 5.1056 11.0317 8.3332 18.076 6.4554 14.0887 14.0823 30.7337 16.9487 36.989l5.1932 11.3331-3.1004 6.4486-3.0941 6.4358-27.3731.0088c-7.5435.0022-14.3959-.0118-19.3592-.0364-2.4816-.0124-4.4911-.0273-5.8782-.044-.6935-.0088-1.2313-.0173-1.5945-.0265a17.8996 17.8996 0 0 1-.4106-.0142 5.2615 5.2615 0 0 0-.0705-.0044 2.2162 2.2162 0 0 0-.0522-.1154 13.9142 13.9142 0 0 0-.2023-.4007c-.1772-.3403-.4359-.8218-.757-1.4099-.642-1.176-1.5338-2.7779-2.5205-4.522-1.6634-2.9407-2.557-4.5368-3.0111-5.4568-.2272-.46-.344-.751-.3925-.95-.0485-.199-.0342-.3001.0041-.4194.0037-.0117.0484-.121.1205-.2854s.175-.3946.306-.6857c.262-.5822.6375-1.4083 1.1101-2.4435.9453-2.0703 2.279-4.9763 3.8717-8.4366 3.1852-6.9208 7.4053-16.06 11.6207-25.1709 4.2153-9.1109 8.4261-18.1935 11.593-25.0018 1.5834-3.4042 2.9058-6.2398 3.8373-8.226.4658-.993.8337-1.7737 1.0876-2.3067.127-.2665.2255-.471.2932-.6089.0137-.0278.0204-.0405.0315-.0628zm-.0372 3.3995c-.0374 0-.0509.0139-.0601.021a.1213.1213 0 0 0-.0188.0178.2693.2693 0 0 0-.0228.0309 1.421 1.421 0 0 0-.053.0894 9.6048 9.6048 0 0 0-.1717.328c-.144.2857-.347.7031-.601 1.2347-.508 1.063-1.2193 2.5816-2.0656 4.4056-1.6925 3.648-3.925 8.5175-6.1496 13.4046-2.2245 4.887-4.441 9.7917-6.1015 13.5101-.8302 1.8592-1.5213 3.4218-2.0052 4.5377-.2419.5579-.432 1.0041-.5619 1.3204a12.9192 12.9192 0 0 0-.149.3754 2.3354 2.3354 0 0 0-.0394.1131c-.0094.03-.0172.0426-.0172.082 0 .0289.004.0307.0068.0403.0028.0095.0064.0195.0106.0314.0085.0238.0203.0547.036.0938.0312.078.0772.1878.137.3283.1195.281.2947.684.518 1.1925.4468 1.0169 1.0862 2.4557 1.8573 4.1811 1.5422 3.451 3.611 8.0492 5.7186 12.714 2.1076 4.665 4.2539 9.3965 5.9503 13.1138 1.6964 3.7173 2.9399 6.4144 3.253 7.0312.121.2386.2426.4208.3673.544.1248.1233.263.1939.4028.1668.0573-.0111.0633-.0336.0797-.0525a.6535.6535 0 0 0 .0506-.0689c.0368-.0558.0826-.1335.139-.2362.1127-.2053.2676-.5085.4664-.9128.3974-.8086.9695-2.0205 1.722-3.6478 1.505-3.2545 3.7311-8.1702 6.7202-14.8374l8.8242-19.6818-8.797-19.4937c-2.4144-5.3503-4.6295-10.2406-6.2532-13.8092a1256.8621 1256.8621 0 0 0-1.9429-4.2545c-.2336-.508-.4182-.9065-.5474-1.1823a29.8736 29.8736 0 0 0-.1518-.3202 4.8058 4.8058 0 0 0-.044-.0891c-.0112-.022-.0105-.0269-.0294-.0517-.1169-.153-.3012-.2698-.4773-.2698zm.0367.2001c.0828.0177.223.0915.2932.1835-.0129-.0168.0015.0034.0117.0232a4.445 4.445 0 0 1 .0421.0853c.0358.0739.0865.1807.151.3182.1288.275.313.6735.5466 1.1813.467 1.0156 1.1309 2.4694 1.9426 4.2536 1.6236 3.5684 3.8386 8.4585 6.253 13.8087l8.7624 19.4169-8.7896 19.605c-2.989 6.6668-5.215 11.582-6.7194 14.8352-.7522 1.6266-1.324 2.8377-1.7202 3.6436-.198.403-.3524.705-.4626.9055-.055.1002-.0991.1752-.1308.223-.011.0167-.0177.0251-.025.0345-.056.0055-.1275-.0151-.2233-.1096-.1018-.1006-.2169-.2682-.3323-.4957-.3038-.5986-1.5534-3.3073-3.2497-7.0243-1.6962-3.717-3.8422-8.4482-5.9497-13.113-2.1075-4.6647-4.1766-9.2629-5.7186-12.7134-.771-1.7253-1.4103-3.1639-1.8567-4.18a122.2487 122.2487 0 0 1-.5173-1.1904 17.5736 17.5736 0 0 1-.1351-.3248 2.8161 2.8161 0 0 1-.0338-.0872c-.0023-.0064-.0033-.0098-.0046-.014.0007.004.0008-.0012.0068-.0207a2.2029 2.2029 0 0 1 .0365-.1036c.0327-.0882.082-.2125.1466-.3696.129-.3142.3188-.7596.5605-1.317.4833-1.1146 1.1743-2.6768 2.0044-4.5357 1.6601-3.7177 3.8765-8.6222 6.1009-13.509 2.2244-4.8868 4.4568-9.756 6.149-13.4032.8462-1.8237 1.5572-3.342 2.0646-4.4037.2536-.531.4565-.9478.5994-1.231.0714-.1417.128-.25.1678-.3213.0129-.0232.0206-.0355.0296-.0503zm-.0395 5.641c-.0006.0002-.0384.0242-.0432.0298a.138.138 0 0 0-.0098.0132.334.334 0 0 0-.0144.0237 1.927 1.927 0 0 0-.0386.0717c-.0316.0611-.0756.15-.132.2651-.1126.2305-.274.5666-.4772.9943-.4065.8556-.9807 2.0774-1.6688 3.5489-1.3762 2.9429-3.2078 6.8843-5.062 10.8897-1.8543 4.0054-3.7312 8.075-5.1983 11.2738-1.4671 3.199-2.5219 5.521-2.7403 6.0536-.0616.1502-.1041.3132-.0433.6105.0609.2972.2162.741.5382 1.5164.6442 1.551 1.9579 4.4264 4.5252 10.032l5.2873 11.5441h1.5912c.553 0 .9378-.0158 1.1929-.0546.1275-.0195.2227-.0435.2964-.0818.0737-.0382.1343-.1089.1338-.1908-.0001-.021-.0022-.0411-.0057-.0861a24.4188 24.4188 0 0 0-.0158-.187c-.0137-.159-.0337-.3855-.0595-.672-.0517-.573-.1262-1.3861-.2182-2.3798a4383.1252 4383.1252 0 0 0-.716-7.6477c-.4927-5.2177-.7485-7.9016-.9337-9.3197-.0926-.709-.1665-1.1011-.248-1.3437-.0815-.2425-.1883-.3433-.2975-.4147-.1057-.069-.335-.2538-.6054-.4874a27.0858 27.0858 0 0 1-.8804-.7975c-1.9709-1.8663-2.9734-4.7646-2.5654-7.4142.7315-4.7509 5.217-8.131 9.831-7.4131 4.7003.7313 8.0242 5.216 7.3081 9.8552-.3698 2.396-1.6818 4.46-3.9938 6.2677l-.617.4828-.9517 10.3047c-.2606 2.8229-.4975 5.4583-.669 7.4303-.0857.986-.1552 1.8064-.2031 2.4014-.048.595-.0748.9514-.0746 1.056l.002.7106 1.6034-.0577 1.5657-.0563 5.0232-11.5314 5.0155-11.5144-.362-.8765c-.7092-1.7173-4.4132-9.9207-7.9596-17.6983-1.7731-3.8888-3.5061-7.6696-4.804-10.4756-.6488-1.403-1.189-2.5624-1.571-3.37a68.0258 68.0258 0 0 0-.4485-.9345 9.052 9.052 0 0 0-.1249-.2457 1.232 1.232 0 0 0-.0375-.0665c-.0053-.0084-.0094-.0154-.0166-.0243-.0036-.0045-.0074-.0094-.0174-.0175-.01-.0082-.0892-.0168-.0897-.0167zm.0313.2794c.0256.0494.0503.0972.0884.1745.1052.213.2566.5283.4474.9316.3816.8067.9215 1.9657 1.5703 3.3684 1.2976 2.8055 3.0306 6.586 4.8037 10.4745 3.5461 7.7772 7.2552 15.9933 7.9568 17.6924l.3315.803-4.9837 11.4413L56.3431 72.9l-1.4493.0522-1.4114.0506-.0017-.5175c-.0002-.0642.026-.4462.074-1.0406.0478-.5943.1173-1.4142.203-2.4.1716-1.9715.4082-4.6066.6688-7.4292l.9443-10.2246.5537-.433c2.3393-1.8292 3.6859-3.9403 4.0634-6.3863.7322-4.7437-2.6628-9.3213-7.4635-10.0683-4.7188-.7342-9.2954 2.7172-10.0425 7.5687-.4181 2.7154.6037 5.6681 2.6215 7.5788.2967.281.6137.5674.8866.8032.2729.2358.4976.4187.6252.5022.097.0634.15.1018.2228.3182.0727.2164.1478.6029.2398 1.3079.1841 1.41.4405 4.0955.9331 9.3131.2787 2.951.532 5.6602.7158 7.6474.092.9936.1665 1.8069.2182 2.3796.0258.2863.0459.5124.0595.6708.0068.0793.012.1417.0155.186.0035.0442.0052.0776.0052.0727 0 .002.0074.0025-.0334.0237-.041.0213-.1215.045-.2388.063-.2347.0357-.6157.0524-1.1651.0524h-1.4721L40.878 61.5553c-2.5674-5.6055-3.8815-8.4821-4.5225-10.0256-.3205-.7717-.472-1.2108-.5276-1.482-.0556-.2712-.0242-.362.0331-.5019.2106-.5133 1.2701-2.8478 2.737-6.0465 1.467-3.1986 3.344-7.268 5.1981-11.2733 1.8542-4.0052 3.6858-7.9463 5.0618-10.8889.688-1.4713 1.262-2.693 1.6682-3.548.203-.4274.3641-.7632.4762-.9924.0443-.0904.0744-.1503.1028-.2064zm-19.168 35.7481c-.0425.0135-.0423.0257-.0497.0342a.269.269 0 0 0-.0193.0251 1.135 1.135 0 0 0-.043.0692 6.9598 6.9598 0 0 0-.1332.2428c-.111.2094-.2658.5128-.4586.8978-.3854.77-.9223 1.8654-1.56 3.1792-1.2752 2.6274-2.9526 6.1276-4.6225 9.639-1.6699 3.5113-3.3322 7.034-4.5771 9.706-.6225 1.336-1.1407 2.459-1.5034 3.2623-.1814.4016-.3238.7234-.4213.9522a8.5362 8.5362 0 0 0-.112.2728 1.6208 1.6208 0 0 0-.0303.0839c-.0073.0228-.0138.032-.0138.0686 0 .044.0097.058.0212.0894.0115.0314.0276.07.0481.1167.041.0934.1.219.1754.3735.1509.309.3665.733.6266 1.2351.5203 1.0043 1.2192 2.3209 1.9348 3.6489.7155 1.328 1.4477 2.6676 2.0345 3.718.2935.5253.5505.9781.7512 1.3216.2007.3434.34.5718.4175.6706.0302.0385.0518.0399.0747.0476a.5954.5954 0 0 0 .0786.019c.0607.0115.1407.0218.2418.0318.2023.0199.4874.038.8447.0547.7147.0333 1.7183.0608 2.9152.0823 2.3938.043 5.5593.0627 8.7205.0598 3.1612-.0033 6.318-.028 8.6936-.0754 1.1878-.0237 2.18-.0528 2.8811-.0875.3506-.0173.6282-.036.8227-.0564.0973-.0099.1735-.0204.2307-.0323a.4256.4256 0 0 0 .0747-.0207c.0226-.0088.0546-.0099.0778-.0702.0186-.0486.0062-.0524.0037-.0645a.3353.3353 0 0 0-.0093-.0364 1.7796 1.7796 0 0 0-.0345-.1011 11.5638 11.5638 0 0 0-.138-.3516c-.1222-.3008-.304-.7326-.5376-1.2775-.467-1.0897-1.14-2.631-1.9516-4.4734-1.6231-3.6848-3.8005-8.574-5.9916-13.4617-2.191-4.8878-4.3958-9.7743-6.0735-13.453-.8388-1.8394-1.546-3.3768-2.0538-4.462-.254-.5425-.4581-.972-.6043-1.2701a12.6074 12.6074 0 0 0-.1755-.3472 2.1194 2.1194 0 0 0-.0546-.0979.483.483 0 0 0-.021-.0325c-.007-.0098-.0092-.0179-.0337-.0347a.6524.6524 0 0 0-.2214-.0952c-.077-.0177-.1526-.0236-.2246-.0009zm38.3746.001c-.076.0122-.129.0627-.1809.1257-.052.063-.1066.1463-.1778.2556-.0503.077-.148.2722-.309.6028s-.3787.7871-.645 1.3516c-.5328 1.129-1.2598 2.6902-2.1146 4.5374-1.7095 3.6944-3.93 8.5336-6.1287 13.3502-2.1986 4.8166-4.3754 9.6106-5.9973 13.2143-.811 1.802-1.483 3.3063-1.95 4.3674-.2335.5305-.4157.9502-.5385 1.2414a13.906 13.906 0 0 0-.139.339 1.999 1.999 0 0 0-.035.096c-.004.0123-.0073.0224-.0098.0336a.1715.1715 0 0 0-.0033.0197c-.001.0088-.0052.0173.006.0467a.0998.0998 0 0 0 .0446.0536.1497.1497 0 0 0 .0353.017.539.539 0 0 0 .0754.0192c.058.011.1358.0206.2355.03.1994.019.4846.0366.845.0526.7208.032 1.742.0587 2.9644.08 2.445.0427 5.6948.064 8.9495.064 3.2547-.0001 6.514-.0215 8.978-.0643 1.232-.0214 2.265-.0483 3-.0804.3676-.016.6604-.0335.8679-.0525.1037-.0099.1857-.0193.2475-.03a.6763.6763 0 0 0 .0794-.0182c.023-.0066.0437-.0066.0759-.045v-.0003l.0215-.0257v-.01c.0283-.0398.0554-.083.1003-.1648.0545-.0991.1241-.2316.207-.3934.1657-.3235.3843-.7636.6374-1.2816.5064-1.036 1.151-2.383 1.7855-3.727.6345-1.3441 1.259-2.6851 1.725-3.7088.233-.5119.4265-.9445.562-1.259a12.656 12.656 0 0 0 .1577-.3789c.0184-.047.0324-.086.0427-.117.0102-.031.0187-.0436.0187-.0855 0-.0368-.0064-.0447-.0133-.0667a1.6194 1.6194 0 0 0-.0288-.0815 8.7472 8.7472 0 0 0-.1069-.266c-.093-.2234-.229-.538-.4022-.9314-.3465-.7869-.8416-1.8886-1.4368-3.2005-1.1903-2.6239-2.7811-6.0883-4.3838-9.553-1.6026-3.4646-3.2169-6.9293-4.4542-9.5536-.6186-1.3122-1.1432-2.4145-1.5249-3.2017a59.4134 59.4134 0 0 0-.4596-.932 10.1454 10.1454 0 0 0-.139-.2657c-.0357-.0651-.05-.0972-.0835-.1336-.0785-.0853-.1389-.1508-.1974-.1985-.0586-.0477-.1268-.084-.2029-.0716zm-38.2992.178a.2768.2768 0 0 1 .108.004.4867.4867 0 0 1 .1504.064.2301.2301 0 0 1 .0084.0134c.0118.0195.0286.0496.0495.0888.0417.0785.0998.1937.1724.3418.1452.296.3492.7248.603 1.2668.5074 1.0841 1.2143 2.6215 2.053 4.4606 1.6774 3.6781 3.882 8.564 6.073 13.4516 2.1908 4.8875 4.3681 9.7767 5.991 13.461.8114 1.842 1.4845 3.3828 1.951 4.4714.2333.5443.415.9756.5364 1.2743.0607.1493.1063.2656.1354.3452.0076.0208.0108.0316.016.0471a2.5372 2.5372 0 0 1-.204.0285c-.188.0196-.4637.0382-.8126.0554-.6976.0344-1.6891.0635-2.876.0872-2.3736.0473-5.5294.073-8.6897.0758-3.1603.0033-6.3254-.0171-8.7173-.0601-1.1959-.0215-2.1986-.0488-2.91-.082-.3556-.0167-.6386-.0349-.8349-.0542-.0981-.0099-.1749-.0196-.2257-.0292a.52.52 0 0 1-.0498-.0118c-.0582-.076-.1997-.3018-.3954-.6367-.1997-.3417-.4562-.794-.7493-1.3185-.5861-1.0492-1.318-2.3883-2.0332-3.7156-.7152-1.3274-1.4139-2.6431-1.9334-3.6459-.2597-.5014-.4748-.9244-.6244-1.231a10.7322 10.7322 0 0 1-.1724-.367 1.9626 1.9626 0 0 1-.0435-.1058c-.0092-.025-.01-.0497-.01-.0249 0 .0232-.0004.0055.0051-.0114a1.4448 1.4448 0 0 1 .0267-.0741 8.467 8.467 0 0 1 .1096-.2663c.0965-.2265.2386-.5474.4196-.9484.3622-.802.88-1.925 1.5024-3.2606 1.2446-2.6712 2.9068-6.1933 4.5766-9.7044 1.6697-3.511 3.3468-7.011 4.6217-9.6376.6374-1.3134 1.1744-2.4087 1.5592-3.1773.1924-.3843.347-.687.4566-.894a6.9833 6.9833 0 0 1 .1292-.236c.0119-.0202.02-.0327.0274-.0442zm38.3288.0062c.0026-.0004.015-.001.0563.0325.0414.0337.1003.0954.1782.18-.01-.011.023.0351.057.0973a9.44 9.44 0 0 1 .1363.2605c.1127.2216.2677.5357.4583.9287.3811.786.9053 1.8878 1.5238 3.1997 1.237 2.6237 2.8512 6.0883 4.4537 9.5526 1.6025 3.4643 3.1932 6.9286 4.3832 9.5518.595 1.3116 1.0898 2.4127 1.4357 3.1983.173.3928.3087.707.4009.9282.046.1106.0812.198.1044.2597.0116.0309.0203.0554.0256.0719.0052.0164.0049.0346.0049.0099 0-.0237-.0011.001-.0095.027a2.2396 2.2396 0 0 1-.0395.1072c-.0353.0905-.088.217-.1553.3731-.1345.3123-.3275.7442-.5602 1.2554-.4654 1.0224-1.0897 2.3628-1.724 3.7063-.6342 1.3435-1.2786 2.6901-1.7843 3.7248-.253.5174-.4711.9567-.6359 1.2784a16.1464 16.1464 0 0 1-.2042.3888c-.049.0892-.0839.1433-.0947.1585a.3818.3818 0 0 1-.052.0115 3.3648 3.3648 0 0 1-.2324.0279c-.202.0184-.4932.036-.8592.052-.732.0319-1.764.0587-2.9951.08-2.4622.0429-5.721.0642-8.9748.0644-3.2539 0-6.503-.0213-8.9462-.064-1.2216-.0213-2.2419-.0478-2.9595-.0798-.3588-.016-.6421-.0333-.8355-.0517a2.651 2.651 0 0 1-.2064-.0263c.0047-.0128.0068-.02.013-.036.0297-.0766.0758-.1891.1368-.3338.122-.2895.3041-.7086.5374-1.2387.4667-1.0602 1.1386-2.5643 1.9495-4.366 1.6216-3.6033 3.7985-8.3971 5.997-13.2135 2.1985-4.8164 4.4189-9.6554 6.1282-13.3494.8546-1.847 1.5816-3.4077 2.114-4.536.2661-.5641.4835-1.0203.644-1.3497.1604-.3293.2706-.5413.2975-.5826.0708-.1087.1247-.1894.1656-.239.0409-.0495.0648-.0599.0674-.0603zm-38.2235 5.5921a.0952.0952 0 0 0-.0683.0039.0965.0965 0 0 0-.0264.017c-.0113.0096-.0166.0168-.0226.0246a.5517.5517 0 0 0-.0359.0541 3.7544 3.7544 0 0 0-.1017.187c-.084.1623-.2008.4002-.3462.704-.2907.6074-.6956 1.4779-1.176 2.5252-.9607 2.0947-2.224 4.8967-3.4805 7.7133-1.2566 2.8166-2.5064 5.6475-3.4404 7.8-.467 1.0762-.855 1.9827-1.1256 2.6335-.1353.3253-.241.5865-.313.774a5.5363 5.5363 0 0 0-.0824.2255 1.0971 1.0971 0 0 0-.0218.0722c-.0053.0203-.0113.0307-.0087.065.0022.0298.0092.048.0182.0754.0092.0276.0214.0602.037.0996.0313.0785.0758.1822.1325.3086.1132.253.275.5976.4735 1.01.397.8246.9409 1.9196 1.5365 3.0867l2.1913 4.293H36.51c2.8041 0 5.3531-.01 7.2016-.0263.9242-.0077 1.6733-.0175 2.1917-.028.2592-.0056.4606-.011.5983-.0167.0689-.0033.1218-.0055.1594-.0088a.4474.4474 0 0 0 .047-.0055.1697.1697 0 0 0 .0245-.0055c.0056-.0022.0123-.0033.0248-.0124.0062-.0044.0142-.0099.023-.0223.009-.0122.0186-.056.0186-.056 0-.0327-.0044-.0311-.0071-.0394-.0026-.0088-.0057-.0167-.0095-.0268a2.5334 2.5334 0 0 0-.0324-.0802 16.5748 16.5748 0 0 0-.1218-.2815 111.8495 111.8495 0 0 0-.4607-1.0245c-.3966-.8737-.9629-2.1088-1.6432-3.5847-1.3605-2.9516-3.1759-6.866-4.9951-10.7743-1.8192-3.9084-3.6423-7.8109-5.0186-10.7389-.688-1.464-1.2647-2.6844-1.673-3.5403-.2043-.428-.3665-.7645-.4798-.9954a15.2662 15.2662 0 0 0-.1327-.2657 2.1262 2.1262 0 0 0-.0384-.0717.466.466 0 0 0-.0144-.0235c-.0025-.0037-.0047-.0075-.0095-.013-.0047-.0057-.0444-.0303-.0449-.0304zm38.2583.0886c-.0006 0-.0575.0176-.0655.0246a.116.116 0 0 0-.015.0158.2647.2647 0 0 0-.0174.0252 1.3835 1.3835 0 0 0-.0408.071 9.6691 9.6691 0 0 0-.1354.2609c-.1146.227-.2774.5592-.482.982-.4089.8455-.9841 2.0533-1.67 3.504-1.372 2.9013-3.1864 6.7737-4.9963 10.6579-1.8099 3.8842-3.615 7.78-4.969 10.7287-.677 1.4743-1.2412 2.7116-1.6367 3.5925a79.5283 79.5283 0 0 0-.4599 1.0394 12.4643 12.4643 0 0 0-.1226.2926 2.1695 2.1695 0 0 0-.033.087c-.0078.0228-.0147.0266-.0163.0667a.1011.1011 0 0 0 .0248.0683.0932.0932 0 0 0 .0275.0214c.0139.0077.0219.0088.0301.0115a.3402.3402 0 0 0 .052.0088 2.158 2.158 0 0 0 .164.0139c.141.0088.3467.0165.6113.0238.5293.0144 1.2939.0262 2.2375.0347 1.8873.0169 4.4906.021 7.355.0077l10.4724-.0486 2.0476-4.2514c.5565-1.1556 1.0617-2.2482 1.4278-3.0783.1831-.415.3313-.7643.4341-1.0241a6.391 6.391 0 0 0 .1191-.3204c.0277-.0833.0458-.1304.0449-.1917-.0008-.0532-.0142-.0796-.0343-.1386a5.7844 5.7844 0 0 0-.0865-.2315c-.0747-.1909-.1834-.4541-.3217-.78-.2766-.6518-.6712-1.554-1.1452-2.6223-.9481-2.1365-2.2138-4.9367-3.4863-7.7212-1.2726-2.7846-2.5522-5.5534-3.528-7.6267-.4878-1.0366-.8997-1.8992-1.1971-2.5036-.1487-.3022-.2686-.5395-.3557-.7029a3.7567 3.7567 0 0 0-.1066-.1897.6098.6098 0 0 0-.0376-.0558.1698.1698 0 0 0-.0215-.0238c-.0096-.0087-.02-.0272-.0677-.0281zm-38.2932.182c.0291.057.0617.1215.1083.2163.1127.2297.2749.5661.479.9938.408.8552.9842 2.0754 1.6722 3.5392 1.3761 2.9276 3.1994 6.8298 5.0186 10.738 1.8191 3.9082 3.6342 7.8225 4.9946 10.7738.6801 1.4757 1.2465 2.7106 1.6429 3.5836.1981.4365.354.7826.4599 1.0227.0518.1176.091.2079.118.2723-.0267.001-.0456.0033-.0824.0044a31.908 31.908 0 0 1-.5945.0164c-.517.011-1.2658.0204-2.1896.0285-1.8476.016-4.3962.0259-7.2.0259H26.3707l-2.1392-4.1913c-.5951-1.166-1.1389-2.2602-1.535-3.083-.198-.4114-.359-.755-.471-1.0052a8.3456 8.3456 0 0 1-.1295-.3013 1.7457 1.7457 0 0 1-.0334-.0894c-.0073-.0218-.0096-.0392-.009-.0303.0018.0216 0 .0088.0034-.0044a.931.931 0 0 1 .0182-.0599 5.376 5.376 0 0 1 .0794-.2173c.0709-.1844.1762-.4448.3111-.7693.27-.649.6578-1.555 1.1246-2.6308.9336-2.1515 2.1832-4.9822 3.4395-7.7983 1.2564-2.8162 2.5195-5.618 3.4798-7.7117.4802-1.0468.8847-1.9166 1.1746-2.5222.145-.3028.2612-.5396.3435-.6985.0237-.0458.0377-.07.0555-.1023zm38.2962.0848c.0203.0353.0385.0658.0667.1186.0853.1599.2047.3965.353.6977.2965.6025.7082 1.4646 1.1958 2.5007.9752 2.0721 2.2545 4.8406 3.5268 7.6247 1.2724 2.784 2.5378 5.5838 3.4855 7.7193.4738 1.0677.8682 1.9695 1.1441 2.6196.138.325.2463.5872.3199.775.0368.094.065.1693.0835.2236.0184.0543.0248.1022.0244.081-.0001-.01-.0096.052-.0353.1295a6.2507 6.2507 0 0 1-.1156.3109c-.1013.256-.2489.6038-.4313 1.0175-.365.8274-.8697 1.9184-1.4254 3.0723l-1.997 4.147-10.3566.0479c-2.8637.0132-5.4666.0099-7.3526-.0077-.943-.0088-1.7067-.0203-2.2339-.0348-.2635-.0077-.4682-.015-.605-.0235-.0423-.0022-.065-.0055-.0936-.0077.0022-.0055.003-.0088.0054-.0145.027-.068.0675-.1649.1205-.2879a78.557 78.557 0 0 1 .4588-1.0367c.395-.88.959-2.1171 1.6358-3.5911 1.3537-2.9481 3.1593-6.844 4.969-10.728 1.8098-3.8839 3.6241-7.756 4.9957-10.6568.6859-1.4503 1.2608-2.658 1.6693-3.5026.2043-.4222.367-.7537.4806-.979a9.7969 9.7969 0 0 1 .1115-.2151z"/><path style="color:#000;font-style:normal;font-variant:normal;font-weight:400;font-stretch:normal;font-size:medium;line-height:normal;font-family:sans-serif;font-variant-ligatures:normal;font-variant-position:normal;font-variant-caps:normal;font-variant-numeric:normal;font-variant-alternates:normal;font-feature-settings:normal;text-indent:0;text-align:start;text-decoration:none;text-decoration-line:none;text-decoration-style:solid;text-decoration-color:#000;letter-spacing:normal;word-spacing:normal;text-transform:none;writing-mode:lr-tb;direction:ltr;text-orientation:mixed;dominant-baseline:auto;baseline-shift:baseline;text-anchor:start;white-space:normal;shape-padding:0;clip-rule:nonzero;display:inline;overflow:visible;visibility:visible;opacity:1;isolation:auto;mix-blend-mode:normal;color-interpolation:sRGB;color-interpolation-filters:linearRGB;solid-color:#000;solid-opacity:1;vector-effect:none;fill-opacity:1;fill-rule:nonzero;color-rendering:auto;image-rendering:auto;shape-rendering:auto;text-rendering:auto;enable-background:accumulate;fill:#fff1b5;stroke:#ffb000;stroke-opacity:1;stroke-width:.05;stroke-miterlimit:4;stroke-dasharray:none" d="M51.1383 7.102c-.054.0077-.1028.0347-.1433.0754-.0231.0233-.0162.0209-.0196.0268a.7802.7802 0 0 0-.0112.0205 3.2238 3.2238 0 0 0-.0331.0656 22.4925 22.4925 0 0 0-.1167.2412c-.1.2089-.2437.513-.4267.9024a993.311 993.311 0 0 0-1.5293 3.2754c-1.2812 2.7542-3.0342 6.539-4.9502 10.6897-3.832 8.3012-11.4378 24.7786-16.9014 36.6166-3.059 6.6277-5.5314 12.0376-7.2304 15.8142-.8496 1.8883-1.5058 3.3683-1.9454 4.3884-.2198.51-.3855.9049-.4944 1.1794a6.9918 6.9918 0 0 0-.121.322 1.1836 1.1836 0 0 0-.0291.0968.3023.3023 0 0 0-.0071.0383c-.0015.0132-.0063.0257.0063.0585.0153.0401.0443.0936.0984.1958.0541.102.1298.242.2246.4158.1898.3473.4563.8296.7806 1.412a814.3349 814.3349 0 0 0 2.4792 4.414l3.4887 6.1712 27.3456-.0473 27.3494-.0475 3.0632-6.315 3.0568-6.3026-7.798-17.013A131208.532 131208.532 0 0 1 60.4359 27.041a13066.8202 13066.8202 0 0 0-6.4167-13.9946 3045.4323 3045.4323 0 0 0-1.9671-4.2751c-.234-.507-.417-.9022-.5426-1.172a66.9992 66.9992 0 0 0-.1444-.3092 9.932 9.932 0 0 0-.0389-.0818c-.0046-.0096-.0084-.017-.0114-.023l-.0043-.0084c-.0015-.003.0028 0-.0122-.0178-.0411-.0487-.106-.0649-.16-.0572zm.021.1878V7.29c.0086.0179.0215.0447.038.0798.0331.0701.0815.1736.1442.3084.1253.2695.308.6645.542 1.1714a2954.5916 2954.5916 0 0 1 1.967 4.275 13026.612 13026.612 0 0 1 6.4168 13.9943 129716.6459 129716.6459 0 0 0 16.8383 36.7557l7.761 16.9327-3.0182 6.223-3.0123 6.2103-27.2336.0473-27.2373.047-3.4352-6.0763a814.5145 814.5145 0 0 1-2.4787-4.413 214.564 214.564 0 0 1-.78-1.411 39.87 39.87 0 0 1-.2235-.4136 4.273 4.273 0 0 1-.081-.1594c0-.0007 0-.0006.0003-.001a1.014 1.014 0 0 1 .0244-.081 6.8753 6.8753 0 0 1 .1175-.3128c.1077-.2712.2731-.6652.4925-1.1744.439-1.0183 1.0947-2.4976 1.944-4.3854 1.6987-3.7756 4.1711-9.1854 7.2299-15.8128a703956.1718 703956.1718 0 0 1 16.9011-36.6169c1.916-4.1505 3.6692-7.9351 4.9503-10.689.6406-1.377 1.163-2.4963 1.5287-3.2747.183-.3891.3266-.6934.4262-.9016.0498-.104.0886-.1842.1156-.2386a3.0704 3.0704 0 0 1 .0313-.0618c.0013-.0027.0019-.0034.003-.0055a.0809.0809 0 0 1 .0277-.0164zm.2374 2.9774c-.083-.0054-.1659.027-.247.0859-.081.0589-.1646.1458-.2589.266-.1885.2403-.419.6158-.7196 1.1736-1.2025 2.2311-3.5192 7.3752-8.4105 18.1413-2.4367 5.3635-4.6528 10.2867-6.2605 13.898-.8039 1.8057-1.4558 3.2834-1.907 4.3245-.2257.5205-.401.9318-.5206 1.2209a13.239 13.239 0 0 0-.1368.3412 2.337 2.337 0 0 0-.0361.1009c-.0086.0264-.0158.035-.0166.0743-.0006.0263.0033.0313.0063.0421a.5787.5787 0 0 0 .0109.0356c.009.0266.022.0607.0386.1036.0333.0857.0821.2057.146.3581.1278.3049.315.74.5538 1.2871.4773 1.0944 1.16 2.6372 1.9807 4.4794 1.6413 3.6844 3.835 8.5665 6.0424 13.4544 2.2075 4.8879 4.4289 9.7813 6.1255 13.488.8483 1.8533 1.5653 3.4101 2.084 4.5212.2594.5556.4692.9997.6212 1.3142.076.1573.1372.282.1835.3726.0463.0906.069.1378.099.1766.13.168.3648.2587.5714.2187.0322-.0066.0439-.0187.0544-.0279.0106-.0088.0182-.018.0261-.0275a.7417.7417 0 0 0 .0506-.0714c.0372-.0583.084-.1405.1423-.2485.1164-.2158.2773-.534.483-.955.4113-.8415 1.0012-2.0927 1.7653-3.7442 1.5281-3.303 3.753-8.2067 6.637-14.6296 2.4194-5.3886 4.619-10.3397 6.2138-13.976.7973-1.8182 1.4436-3.3078 1.8907-4.3591.2235-.5257.397-.9417.515-1.2352.0591-.1467.1044-.2628.1352-.3475a2.1835 2.1835 0 0 0 .0356-.1041c.0085-.0276.0158-.039.0158-.0771 0-.037-.007-.0486-.0152-.0755a2.082 2.082 0 0 0-.0343-.1009 10.9969 10.9969 0 0 0-.1297-.3332c-.1134-.2811-.2802-.679-.4947-1.181-.429-1.0042-1.0493-2.4252-1.8145-4.159-1.5306-3.4677-3.6413-8.186-5.9634-13.3185-4.6439-10.2647-8.6256-19.0787-8.8377-19.5624-.1009-.2301-.1817-.4486-.2695-.6192-.0439-.0853-.0894-.1592-.1452-.2176-.0559-.0584-.1274-.1023-.2103-.1077zm-.012.1862c.0272.0018.0531.0143.0884.0511.0352.0369.0744.097.114.1739.079.1538.161.3727.2646.6088.222.5064 4.1946 9.2993 8.8385 19.564 2.3218 5.1321 4.4326 9.8503 5.9628 13.3171.765 1.7334 1.3852 3.1542 1.8137 4.1571.2143.5014.3806.8983.493 1.1772.0563.1394.0993.2494.1276.3272.0142.039.0245.07.031.0913.0065.0214.0071.042.0071.0211 0-.0221-.0006-.0001-.0074.0221a2.0545 2.0545 0 0 1-.0326.0952c-.0295.081-.074.1958-.1327.3414-.1173.2914-.2908.7068-.514 1.232-.4465 1.0501-1.0927 2.5393-1.8899 4.3571-1.5944 3.6356-3.7937 8.5862-6.213 13.9744-2.8838 6.4226-5.1086 11.326-6.6362 14.6277-.7638 1.6509-1.3532 2.9014-1.7634 3.7407-.205.4197-.3655.7365-.4797.9481-.0571.1059-.1028.1856-.1355.2368a.5607.5607 0 0 1-.029.0418c-.118.0132-.2987-.0544-.3707-.1474.003.0033-.0348-.0586-.08-.147a19.7282 19.7282 0 0 1-.182-.3691 116.1327 116.1327 0 0 1-.62-1.312c-.5184-1.1103-1.2354-2.6668-2.0836-4.5199-1.6963-3.7062-3.9175-8.5995-6.1248-13.4872-2.2074-4.8876-4.401-9.7696-6.0422-13.4535-.8206-1.842-1.503-3.3845-1.98-4.478-.2384-.5468-.4257-.9814-.5528-1.2847a15.8557 15.8557 0 0 1-.1444-.3535 2.5167 2.5167 0 0 1-.0357-.096c-.0029-.0083-.0043-.0134-.0057-.0182.0003.0042.0007.0013.006-.0153a2.2872 2.2872 0 0 1 .0332-.0927c.03-.0794.0755-.1924.135-.336.1186-.2873.2937-.6979.519-1.218.4509-1.04 1.1026-2.5173 1.9063-4.3227 1.6074-3.6107 3.8234-8.5336 6.26-13.8967 4.8914-10.7662 7.2116-15.9161 8.4048-18.1298.2982-.5534.5265-.9235.7022-1.1474.0878-.112.1626-.1869.2219-.2299.0593-.043.099-.0529.1262-.0511zm-.2532 6.1583c-.0149.0101-.0183.0157-.0223.0205a.1786.1786 0 0 0-.0171.0246 1.256 1.256 0 0 0-.0375.0661 9.9128 9.9128 0 0 0-.1281.2505 75.564 75.564 0 0 0-.467.9606c-.399.832-.9646 2.0279-1.6437 3.4731-1.3583 2.8905-3.1701 6.778-5.0082 10.7408-1.8382 3.9627-3.7027 8.0007-5.166 11.1929-1.4632 3.1922-2.5228 5.532-2.7601 6.1203-.0624.1545-.1107.3125-.0626.5883.0481.2757.183.677.4713 1.379.5767 1.404 1.7702 4.0086 4.1233 9.136 2.6283 5.727 4.9764 10.8594 5.2121 11.3916l.4583 1.0353h1.4553c.5434 0 .8936-.0138 1.121-.0571.1137-.0217.1983-.0498.2635-.0987a.2604.2604 0 0 0 .1031-.2034c0-.043-.0075-.1325-.021-.298-.0134-.1655-.0332-.396-.0584-.6827a678.6729 678.6729 0 0 0-.2094-2.3188c-.1737-1.8963-.4065-4.396-.6432-6.9106a3077.7233 3077.7233 0 0 0-.6663-7.0017c-.189-1.9571-.3248-3.3308-.3574-3.5682-.0394-.2876-.093-.5011-.1787-.6621-.0857-.161-.2108-.2674-.366-.3169-.1758-.056-.4325-.2232-.7161-.465-.2836-.2419-.5974-.5573-.9067-.9088-.6187-.7028-1.2209-1.5509-1.5426-2.2365-1.265-2.6957-1.2608-5.26.0128-7.9315 1.5954-3.3464 5.4142-5.3728 9.0713-4.8132 2.9674.454 5.4142 2.2497 6.74 4.9458.7123 1.4484.7026 1.4072.7004 3.7498-.002 2.0074-.0593 2.468-.4237 3.3801-.5724 1.4321-1.8233 3.0388-3.0515 3.9203-.2864.2056-.5463.414-.7367.5865-.0952.0862-.1731.163-.2296.2285a.7113.7113 0 0 0-.0688.0916c-.0178.0292-.035.0556-.0348.1033 0-.005-.0007.0185-.003.0484-.0022.03-.0055.0718-.0098.1247-.0086.1058-.0212.256-.0378.445-.033.3782-.081.9128-.1403 1.5644a1983.7674 1983.7674 0 0 1-.4623 4.999c-.3604 3.8494-.8047 8.6152-.9873 10.5913l-.3413 3.6948 1.5053-.0011 1.4643-.0011 5.0076-11.5336 5-11.5158-7.4833-16.6004c-2.0533-4.5548-3.933-8.7098-5.3073-11.7348a1092.2759 1092.2759 0 0 0-1.6413-3.5991c-.1966-.4282-.3512-.763-.4588-.9932a24.8428 24.8428 0 0 0-.1257-.2657 3.6982 3.6982 0 0 0-.0359-.0725.7226.7226 0 0 0-.012-.0224c-.0035-.0064.0007-.0061-.0182-.0265-.0004-.0005-.107-.0238-.1218-.0137zm.0482.2744c.027.0567.0554.1163.0973.2059.1073.2294.2618.5638.4583.9918.393.856.9539 2.086 1.641 3.5983 1.3743 3.0248 3.2539 7.1796 5.307 11.7343l7.4494 16.525-4.9668 11.4398-4.9593 11.4217-1.3427.001-1.3016.001.3226-3.4905c.1826-1.9759.6269-6.742.9872-10.5912.1802-1.9247.3438-3.6962.4623-4.9997.0593-.6517.1072-1.1866.1404-1.5651a88.19 88.19 0 0 0 .038-.446c.0043-.0532.0075-.0953.0098-.1262.0022-.031.0036-.0451.0035-.0635.0002.0213-.0025.0116.0071-.004a.5713.5713 0 0 1 .0512-.0673c.048-.0558.1218-.1292.2135-.2122.1832-.1658.4388-.371.7201-.573 1.266-.9087 2.5268-2.5288 3.1159-4.0029.3703-.9265.4354-1.438.4373-3.4493.0022-2.3425-.0074-2.3845-.7196-3.8328-1.3516-2.7486-3.854-4.5848-6.8785-5.0475-3.7418-.5726-7.634 1.4926-9.2666 4.917-1.2937 2.7136-1.2979 5.3542-.0133 8.0917.3345.7129.9433 1.567 1.5714 2.2806.314.3567.6327.6779.9255.9276.2928.2497.5564.4291.7803.5005.1136.0363.1902.099.2583.227.0681.1278.1204.323.1583.5998.0286.209.1678 1.6037.3568 3.5605a3026.27 3026.27 0 0 1 .666 7.0011c.2368 2.5146.4698 5.0143.6435 6.9104.0869.948.1588 1.7453.2092 2.318.0251.2864.0447.5165.0582.6813.0134.1648.0204.2751.0204.283 0 .028-.0012.0335-.0283.0538-.027.0203-.0878.0458-.1874.0648-.1991.038-.5462.0538-1.0862.0538h-1.3346l-.4095-.9243c-.2416-.5455-2.5847-5.667-5.213-11.3941-2.353-5.1273-3.5472-7.7336-4.1203-9.1289-.2865-.6976-.417-1.0933-.4601-1.3401-.043-.2469-.0082-.3372.052-.4861.2292-.5683 1.2935-2.9203 2.7565-6.112 1.4631-3.1919 3.3274-7.2299 5.1654-11.1925 1.838-3.9625 3.65-7.8496 5.008-10.7396.679-1.445 1.2446-2.6407 1.6432-3.4717.1992-.4155.3567-.74.4656-.9582.0379-.076.0616-.1215.0873-.1709zm-19.143 35.2246c-.1168.0195-.221.09-.3228.1963-.0345.036-.051.07-.0887.1364a9.7275 9.7275 0 0 0-.1457.2698c-.119.2266-.2807.545-.4792.943-.3972.7956-.9415 1.9085-1.5831 3.2333-1.2834 2.6494-2.9558 6.1458-4.6152 9.6425-1.6595 3.4967-3.306 6.9936-4.5377 9.644-.616 1.3251-1.1281 2.4388-1.4866 3.2352-.1792.3982-.32.717-.4164.944a8.3507 8.3507 0 0 0-.1107.271 1.5601 1.5601 0 0 0-.0296.0836c-.0072.0228-.0139.0323-.0139.0683 0 .0407.0095.0627.0218.0985.0122.0358.0294.0792.0514.131.044.1036.1075.2408.1882.4081.1613.3348.3913.7893.6685 1.3238.5543 1.069 1.2969 2.4576 2.0503 3.841.7534 1.3834 1.5177 2.7614 2.1161 3.809.2992.524.557.9652.7515 1.2839.0972.1593.1783.2879.242.382.0318.0469.0594.0851.083.1153.0235.03.0377.0504.0698.0722.0209.0141.029.0141.0381.0164.009.0022.0173.0044.0264.0055a.7074.7074 0 0 0 .0658.0077 7.104 7.104 0 0 0 .2176.0135c.1847.0088.4489.016.7843.0232.6709.0143 1.627.0257 2.798.0342 2.342.0169 5.5439.0215 9.0408.0088 5.8202-.0204 8.9999-.038 10.7341-.0859.8672-.0239 1.372-.0549 1.6715-.0992.1498-.0222.2482-.0465.3215-.082.0732-.0355.1257-.0974.1379-.1608.006-.0313.001-.0397-.0013-.0522a.4288.4288 0 0 0-.0098-.0388 1.9263 1.9263 0 0 0-.036-.1078 11.1298 11.1298 0 0 0-.1416-.3644c-.125-.3093-.3098-.7497-.5467-1.3029-.4738-1.1064-1.155-2.6638-1.9758-4.522-1.6417-3.7164-3.842-8.635-6.056-13.5482-2.2142-4.9131-4.4423-9.8208-6.1402-13.515-.849-1.8472-1.5654-3.3908-2.0813-4.4805-.258-.545-.4656-.9763-.6152-1.276a11.2177 11.2177 0 0 0-.18-.349 1.9484 1.9484 0 0 0-.0571-.0993.435.435 0 0 0-.0229-.0333c-.0077-.01-.0111-.019-.0359-.0348-.1148-.0727-.2324-.1088-.3492-.0893zm38.2478.0003c-.115.02-.2157.0914-.3122.198-.0192.0211-.0297.0392-.0468.068a3.0533 3.0533 0 0 0-.062.1113 14.9075 14.9075 0 0 0-.1912.3731c-.1571.3152-.3725.7606-.638 1.3178-.531 1.1143-1.262 2.6763-2.1251 4.5362-1.7264 3.7198-3.9807 8.6311-6.216 13.5348-2.2354 4.9036-4.4519 9.7996-6.1026 13.488-.8254 1.8442-1.5091 3.3863-1.9834 4.4772-.2372.5454-.4218.9778-.5459 1.2794-.062.1508-.1088.2688-.1397.353a1.7574 1.7574 0 0 0-.0351.102.3709.3709 0 0 0-.0093.0374c-.0023.0125-.0137.0178.004.0643.0253.066.0876.1114.1706.1416.083.0302.1962.0525.3642.0723.3358.0393.8894.0653 1.8104.0822 1.842.0337 5.1508.0294 11.0781.0077l13.283-.048 2.6796-5.6239c.7303-1.5325 1.3935-2.9602 1.8739-4.0267.2401-.5332.4346-.9761.5692-1.2972.0673-.1605.1194-.2904.1553-.387a2.1243 2.1243 0 0 0 .0416-.121c.0098-.0325.018-.05.0171-.0893-.0007-.032-.0066-.0447-.0138-.0684a1.7303 1.7303 0 0 0-.03-.087 8.2736 8.2736 0 0 0-.1104-.2783c-.0958-.2322-.2354-.5567-.413-.961-.3555-.8085-.8627-1.9358-1.472-3.2751-1.2184-2.6786-2.845-6.2052-4.4814-9.7224-1.6362-3.5172-3.282-7.0249-4.5385-9.6663-.6283-1.3208-1.1594-2.4248-1.5434-3.2055-.192-.3903-.347-.6999-.4596-.9158a7.29 7.29 0 0 0-.1368-.2529 1.336 1.336 0 0 0-.0451-.074c-.013-.0195-.0104-.03-.0512-.0561-.1133-.0724-.2296-.1085-.3445-.0886zm-38.2176.1837c.0603-.01.1257.0077.2127.0612.0025.0036.0044.0063.0082.0123.0122.0194.0299.0498.0514.0892.043.0787.1025.194.1768.3428.1484.2974.3558.728.6135 1.2723.5154 1.0886 1.2315 2.6318 2.0802 4.4786 1.6976 3.6936 3.926 8.6011 6.1399 13.514 2.214 4.9128 4.4138 9.831 6.0552 13.5467.8207 1.8579 1.5018 3.415 1.975 4.5202.2367.5526.4214.9924.5453 1.2994.062.1535.1088.2741.139.3579a1.758 1.758 0 0 1 .0324.0962c.001.0033.001.0044.0019.0077-.0002.0044.0049.0066-.031.024-.0416.0202-.1273.0446-.2682.0654-.2819.0417-.7848.0736-1.6495.0974-1.7292.0476-4.9097.0655-10.7297.0859-3.4964.0122-6.6976.0077-9.0387-.0088-1.1705-.0088-2.1263-.02-2.7955-.0342a31.3429 31.3429 0 0 1-.7797-.0233 6.1452 6.1452 0 0 1-.2097-.0129c-.0222-.0022-.0382-.0033-.0492-.0055-.0011-.0022-.0066-.0066-.0215-.0254a1.9473 1.9473 0 0 1-.075-.105 10.0408 10.0408 0 0 1-.2378-.3745c-.1928-.316-.4497-.7562-.7484-1.2792-.5974-1.046-1.3616-2.4233-2.1145-3.8058-.753-1.3825-1.4948-2.7703-2.0482-3.8375-.2767-.5336-.5064-.987-.6663-1.3188-.08-.1659-.1425-.3015-.1844-.4002a1.9116 1.9116 0 0 1-.0465-.1184c-.0099-.029-.0117-.053-.0117-.0377 0 .0222-.0005.0055.0049-.0118.0054-.017.0144-.042.0264-.0736a8.182 8.182 0 0 1 .108-.2643c.0953-.2247.2358-.543.4147-.9405.3578-.795.8697-1.9082 1.4855-3.233 1.2314-2.6496 2.8778-6.1462 4.5371-9.6426 1.6593-3.4963 3.3314-6.9925 4.6144-9.6412.6415-1.3243 1.1858-2.437 1.5823-3.2314.1982-.3972.3597-.715.4776-.9393a9.5983 9.5983 0 0 1 .1427-.2644c.036-.0632.07-.1089.0612-.0998.0863-.0902.1569-.1312.2192-.1416zm38.2491 0c.059-.0102.1234.0047.2135.0623-.031-.0197-.0125-.0106-.0035.0028a1.221 1.221 0 0 1 .0387.0635 7.21 7.21 0 0 1 .133.246c.1113.2134.266.5221.4577.9118.3833.7793.9142 1.8829 1.5423 3.2032 1.2561 2.6406 2.9018 6.1481 4.538 9.665 1.636 3.5168 3.2624 7.0432 4.4805 9.721.609 1.339 1.116 2.4658 1.4708 3.273.1774.4036.317.7274.4118.957a8.17 8.17 0 0 1 .1076.2716c.012.0326.021.0587.0264.0768.0055.0181.0063.0342.006.0178-.0004-.0182-.0012.0044-.0093.0312a1.9027 1.9027 0 0 1-.0378.1096 10.601 10.601 0 0 1-.1528.38c-.1335.3183-.3273.7602-.567 1.2925-.4796 1.0647-1.1425 2.4917-1.8723 4.0232l-2.6293 5.5182-13.1665.0476c-5.9272.0215-9.2365.026-11.0741-.0077-.9188-.0168-1.4705-.0436-1.7922-.0812-.161-.0188-.2646-.0412-.3226-.0623-.0447-.0162-.0435-.0214-.0465-.0254a1.6358 1.6358 0 0 1 .0272-.0796c.0295-.08.0758-.1968.1374-.3464.123-.2994.3073-.7313.5442-1.2762.4737-1.0897 1.1576-2.6314 1.9828-4.4753 1.6505-3.6877 3.8669-8.5833 6.102-13.4866 2.2353-4.9034 4.4892-9.8148 6.2152-13.534.863-1.8595 1.5941-3.421 2.1246-4.5343.2652-.5567.4805-1.0014.6367-1.3147.078-.1567.1413-.2803.1884-.3683a2.9184 2.9184 0 0 1 .058-.1041c.0148-.025.0282-.0425.0245-.0383.081-.0894.1477-.1295.2066-.1397zm.0275 6.014a.3439.3439 0 0 0-.0226.0188c-.0069.0078-.0084.011-.0105.0145a.2556.2556 0 0 0-.0115.0194 2.3682 2.3682 0 0 0-.0307.0599c-.026.0517-.0636.1282-.112.229-.097.2017-.2382.5-.4191.8847a845.4196 845.4196 0 0 0-1.5228 3.2637c-1.281 2.757-3.042 6.5659-4.9739 10.7613-1.9318 4.1952-3.7061 8.046-5.0087 10.8703a4927.9934 4927.9934 0 0 1-1.5608 3.3812c-.188.4069-.3367.7283-.4412.9536a48.959 48.959 0 0 1-.1748.3748l-.0098.0196v.01c-.007.0172-.0153.033-.018.0548a.174.174 0 0 0 .0242.11c.0429.0673.1124.0941.2119.1189.199.0495.5554.0786 1.2225.0998 1.334.0424 3.8972.0454 8.7544.0429l10.3227-.0055 2.052-4.2717c.5575-1.1606 1.064-2.239 1.431-3.0422.1835-.4016.3324-.7343.4354-.9746a8.6628 8.6628 0 0 0 .1191-.2893 1.6974 1.6974 0 0 0 .0324-.09c.0078-.0243.0153-.0339.0147-.0732-.0006-.0292-.0042-.0275-.0063-.0341a.4272.4272 0 0 0-.0071-.0205 1.892 1.892 0 0 0-.0226-.058 12.2805 12.2805 0 0 0-.0848-.2012 82.6213 82.6213 0 0 0-.319-.73 538.8961 538.8961 0 0 0-1.1377-2.5526c-.9418-2.102-2.1986-4.8902-3.4599-7.678-1.2612-2.7878-2.5267-5.575-3.486-7.675-.4797-1.05-.8828-1.928-1.1705-2.5488a85.0232 85.0232 0 0 0-.3405-.7277 12.8765 12.8765 0 0 0-.0966-.1996 2.1497 2.1497 0 0 0-.0294-.0571.4323.4323 0 0 0-.0109-.0192c-.0035-.0058-.0035-.0089-.0168-.0232a21.5399 21.5399 0 0 0-.1159-.0164zm-38.2878.1309c-.0003 0-.031.0063-.0394.0107a.093.093 0 0 0-.0174.0115c-.0078.0065-.0114.011-.0147.015-.0065.0078-.0101.0135-.0144.0202a.8375.8375 0 0 0-.0286.0495 5.4174 5.4174 0 0 0-.0886.1736 39.0263 39.0263 0 0 0-.3125.6553c-.266.5678-.643 1.388-1.1034 2.3998-.9206 2.0236-2.1745 4.814-3.5398 7.8825l-4.9827 11.1981 2.1896 4.3438.01.02 2.2054 4.375 10.123.0033 10.2114.0033-.8589-1.859c-4.5742-9.9023-7.9638-17.2157-10.2214-22.0532-1.1289-2.4187-1.9747-4.2184-2.5442-5.4136-.2848-.5975-.5004-1.044-.6481-1.3415a12.8906 12.8906 0 0 0-.171-.3354 1.7883 1.7883 0 0 0-.0496-.088.3009.3009 0 0 0-.0198-.029c-.0037-.0047-.0075-.0096-.0158-.017-.0041-.0035-.0092-.0081-.0188-.0133-.0096-.0053-.05-.0118-.0503-.0118zm38.3354.153c.0174.036.0313.0637.0544.1122.081.17.196.4157.3397.7258.2874.6201.6904 1.4981 1.17 2.548a2497.16 2497.16 0 0 1 3.486 7.6744c1.2612 2.7876 2.518 5.5758 3.4596 7.6775a538.239 538.239 0 0 1 1.1371 2.5515c.1372.3108.2449.5571.3182.728.0367.0855.0649.1521.0835.198.009.0221.0156.039.0198.0505-.0004.0022 0-.0033-.0035.0077a1.522 1.522 0 0 1-.0288.0796 8.4816 8.4816 0 0 1-.1164.2827c-.102.238-.2503.5697-.4335.9705-.3663.8017-.8726 1.8796-1.4297 3.0393l-2.0014 4.1658-10.206.0055c-4.857.0022-7.4216-.0007-8.7484-.0429-.6634-.0211-1.0209-.0538-1.1839-.0942-.075-.0187-.0922-.0375-.0922-.0353.0013-.0044.0013-.0055.0054-.014l.0095-.0196v-.001c.0185-.038.0684-.1454.1673-.3586.1045-.2254.2533-.5467.4414-.9536.376-.8138.9095-1.9694 1.5608-3.3815 1.3026-2.8243 3.0771-6.675 5.009-10.8703 1.9318-4.1953 3.6925-8.004 4.9734-10.7607a842.6032 842.6032 0 0 1 1.5224-3.2629c.1808-.3845.322-.6823.4186-.883.0296-.0617.0467-.0963.0677-.1392zm-38.3288.1256c.038.0718.086.1653.1525.2993.1469.2958.3625.7417.647 1.3388.5692 1.1942 1.4147 2.9937 2.5434 5.4122 2.2575 4.837 5.647 12.1505 10.2212 22.0526l.7362 1.5935-9.9204-.0033-10.009-.0033-2.1436-4.253-.01-.02-2.1597-4.2842 4.9464-11.1172c1.3652-3.0681 2.619-5.8579 3.5394-7.8808.4601-1.0115.837-1.8313 1.1025-2.3979a38.577 38.577 0 0 1 .3109-.652c.0186-.0377.0288-.0565.0432-.0848zm5.685 34.8492c-1.8955.0066-2.9264.013-3.1786.0191-.0315.0008-.0455.0005-.0642.0022-.0023.0003-.0045.0006-.01.0011-.0055.0011-.059.039-.059.0392-.0001 0 .0427.1403.0522.143.0095.0022.0119.0022.0147.0022a.2062.2062 0 0 0 .0253.001c.0385.0012.1205.0034.2507.0045.2603.0022.7073.0044 1.332.0066 2.499.0088 7.8409.0144 15.4228.0144 7.582 0 12.9236-.0055 15.4225-.0144a313.804 313.804 0 0 0 1.332-.0066c.1302-.0011.2123-.0033.2508-.0044.0096-.0005.0145-.0003.0256-.0011.0028-.0005.0052-.0001.0147-.0022.0095-.0022.0523-.143.0522-.143 0-.0001-.0535-.038-.059-.0392-.0055-.001-.008-.001-.0104-.001-.0187-.0023-.0324-.0023-.0639-.0023-.2522-.0055-1.2834-.0123-3.179-.0191-7.5822-.027-19.989-.027-27.5713 0z"/></svg>